<svg xmlns="http://www.w3.org/2000/svg" viewBox="0 0 165.521 105.965" fill="none">
  <path d="M150.698 0H14.823c-.566 0-1.133 0-1.698.003-.477.004-.953.009-1.43.022-1.039.028-2.087.09-3.113.274a10.51 10.51 0 0 0-2.958.975 9.897 9.897 0 0 0-4.35 4.35 10.484 10.484 0 0 0-.975 2.96C.113 9.611.052 10.658.024 11.696a69.755 69.755 0 0 0-.022 1.43C0 13.69 0 14.256 0 14.823v76.318c0 .567 0 1.132.002 1.699.003.476.009.953.022 1.43.028 1.036.09 2.084.274 3.11a10.46 10.46 0 0 0 .975 2.96 9.897 9.897 0 0 0 4.35 4.35c.953.49 1.943.812 2.958.975 1.026.183 2.074.246 3.113.274.477.012.953.017 1.43.019.565.004 1.132.004 1.698.004h135.875c.565 0 1.132 0 1.697-.004.476-.002.954-.007 1.431-.019 1.037-.028 2.085-.09 3.113-.274a10.512 10.512 0 0 0 2.958-.975 9.901 9.901 0 0 0 4.353-4.35 10.578 10.578 0 0 0 .974-2.96c.184-1.026.246-2.074.274-3.11.013-.477.017-.954.019-1.43.004-.567.004-1.132.004-1.699V14.823c0-.567 0-1.133-.004-1.699a63.067 63.067 0 0 0-.019-1.43c-.028-1.038-.09-2.085-.274-3.112a10.545 10.545 0 0 0-.974-2.96 9.901 9.901 0 0 0-4.353-4.35 10.52 10.52 0 0 0-2.958-.974c-1.028-.185-2.076-.246-3.113-.274a63.583 63.583 0 0 0-1.431-.022C151.83 0 151.263 0 150.698 0z" fill="#000"/>
  <path d="M38.08 34.83c1.426-1.795 2.422-4.157 2.15-6.593-2.15.1-4.73 1.426-6.254 3.222-1.328 1.525-2.522 4.055-2.224 6.392 2.397.197 4.73-1.18 6.328-3.02z" fill="#fff"/>
  <path d="M40.205 38.28c-3.498-.197-6.47 1.992-8.132 1.992-1.66 0-4.2-1.893-6.963-1.844-3.596.05-6.91 2.09-8.768 5.342-3.743 6.484-.985 16.12 2.66 21.413 1.794 2.612 3.94 5.54 6.752 5.44 2.66-.1 3.694-1.726 6.93-1.726 3.236 0 4.17 1.726 6.963 1.676 2.91-.05 4.754-2.66 6.548-5.29 2.041-2.96 2.858-5.87 2.907-6.02-.05-.05-5.588-2.165-5.638-8.52-.049-5.32 4.349-7.88 4.547-8.03-2.512-3.694-6.385-4.102-7.756-4.235z" fill="#fff"/>
  <path d="M78.31 32.68c7.413 0 12.573 5.103 12.573 12.544 0 7.468-5.243 12.6-12.712 12.6h-8.22v13.058h-5.898V32.68H78.31zm-8.359 20.244h6.82c5.16 0 8.1-2.773 8.1-7.7 0-4.927-2.94-7.673-8.072-7.673h-6.848v15.373z" fill="#fff"/>
  <path d="M92.236 61.28c0-4.873 3.73-7.868 10.356-8.26l7.636-.447v-2.16c0-3.1-2.076-4.955-5.53-4.955-3.286 0-5.362 1.605-5.864 4.072h-5.41c.307-5.16 4.594-8.958 11.468-8.958 6.735 0 11.05 3.577 11.05 9.152v19.158h-5.466v-4.568h-.14c-1.605 3.15-5.104 5.074-8.724 5.074-5.41 0-9.377-3.344-9.377-8.108zm17.993-2.438v-2.215l-6.875.42c-3.426.224-5.362 1.772-5.362 4.21 0 2.494 2.02 4.13 5.104 4.13 4.016 0 7.133-2.773 7.133-6.545z" fill="#fff"/>
  <path d="M119.258 76.395v-4.596c.42.112 1.37.112 1.83.112 2.634 0 4.065-1.105 4.934-3.955l.53-1.744-10.133-28.014h6.153l7.133 22.854h.113l7.133-22.854h5.997l-10.49 29.426c-2.412 6.82-5.19 9.014-11.022 9.014-.462 0-1.8-.057-2.178-.143z" fill="#fff"/>
</svg>
