<svg xmlns="http://www.w3.org/2000/svg" viewBox="0 0 435.97 173.13">
  <path d="M206.2 84.58v50.75h-16.1V10h42.7a38.61 38.61 0 0 1 27.65 10.85A34.88 34.88 0 0 1 272 47.3a35.27 35.27 0 0 1-11.55 26.6 38.2 38.2 0 0 1-27.65 10.68zm0-59.15v43.75h27a22.18 22.18 0 0 0 16.45-6.83 22.75 22.75 0 0 0 0-30.09 21.77 21.77 0 0 0-16.45-6.83z" fill="#5f6368"/>
  <path d="M302.48 46.37c11.9 0 21.26 3.18 28.09 9.54s10.24 15.05 10.24 26.09v52.7h-15.4v-11.9h-.7c-6.65 9.8-15.47 14.7-26.46 14.7a36.27 36.27 0 0 1-25.06-9.1 29.17 29.17 0 0 1-10.24-22.68c0-9.59 3.6-17.22 10.82-22.89s17-8.5 29.32-8.5c10.5 0 19.18 1.93 26 5.78v-4.06a20.14 20.14 0 0 0-7.53-15.89 25.59 25.59 0 0 0-17.22-6.58c-9.94 0-17.78 4.2-23.52 12.6l-14.18-8.93c8.4-12.39 20.86-18.58 37.34-18.88zm-22 58.57a14.57 14.57 0 0 0 5.95 11.9 21.27 21.27 0 0 0 13.72 4.83 27.47 27.47 0 0 0 19.46-8.12c5.78-5.42 8.68-11.76 8.68-19.04-5.57-4.41-13.3-6.62-23.17-6.62-7.18 0-13.16 1.75-17.92 5.25a16.14 16.14 0 0 0-6.72 12.8z" fill="#5f6368"/>
  <path d="M436 49.17l-53.41 122.8h-16.58l19.81-43.1-35.11-79.72h17.5l25.27 60.91h.35l24.57-60.91z" fill="#5f6368"/>
  <path d="M141.14 73.64A85.79 85.79 0 0 0 139.9 59H72v27.73h38.89a33.33 33.33 0 0 1-14.38 21.88v17.96h23.11c13.55-12.48 21.38-30.9 21.52-52.93z" fill="#4285F4"/>
  <path d="M72 144.05c19.36 0 35.63-6.38 47.52-17.39l-23.11-17.96c-6.44 4.36-14.7 6.88-24.41 6.88-18.72 0-34.58-12.64-40.25-29.64H7.67v18.55A71.83 71.83 0 0 0 72 144.05z" fill="#34A853"/>
  <path d="M31.75 85.95a43.29 43.29 0 0 1 0-27.6V39.8H7.67a71.9 71.9 0 0 0 0 64.7z" fill="#FBBC05"/>
  <path d="M72 28.71a39 39 0 0 1 27.57 10.78l20.55-20.55A69.18 69.18 0 0 0 72 .05 71.83 71.83 0 0 0 7.67 39.8l24.08 18.55C37.42 41.35 53.28 28.71 72 28.71z" fill="#EA4335"/>
</svg>
