<svg xmlns="http://www.w3.org/2000/svg" viewBox="0 0 200 50" fill="none">
  <rect width="200" height="50" rx="6" fill="#FFF"/>
  <path d="M30 10l-5 30h10L30 10z" fill="#FFCD00"/>
  <path d="M25 12c-8 4-13 12-13 21 0 2 .2 3.8.5 5.5L25 12z" fill="#FFCD00"/>
  <path d="M35 12c8 4 13 12 13 21 0 2-.2 3.8-.5 5.5L35 12z" fill="#FFCD00"/>
  <text x="58" y="22" font-family="Arial,sans-serif" font-size="11" font-weight="bold" fill="#333">NORTON</text>
  <text x="58" y="36" font-family="Arial,sans-serif" font-size="9" fill="#666">SECURED</text>
  <path d="M155 14l-2 4h4l-2-4zm-3 6l3 6 3-6h-6z" fill="#4CAF50"/>
  <text x="130" y="36" font-family="Arial,sans-serif" font-size="8" fill="#4CAF50">VERIFIED</text>
</svg>
