<svg xmlns="http://www.w3.org/2000/svg" viewBox="0 0 750 471" fill="none">
  <rect width="750" height="471" rx="40" fill="#fff"/>
  <path d="M278.2 334.2h-60.6l37.9-233.9h60.6l-37.9 233.9z" fill="#00579f"/>
  <path d="M524.3 105.1c-12-4.5-30.8-9.4-54.3-9.4-59.9 0-102 31.9-102.3 77.5-.4 33.7 30.1 52.5 53.1 63.7 23.6 11.5 31.5 18.8 31.5 29.1-.2 15.7-18.9 22.9-36.4 22.9-24.3 0-37.3-3.6-57.2-12.3l-7.9-3.7-8.5 52.8c14.2 6.6 40.5 12.3 67.8 12.6 63.7 0 105-31.5 105.4-80.2.2-26.7-15.9-47.1-50.9-63.9-21.2-10.9-34.2-18.1-34.2-29.1.2-9.9 11-20.2 34.9-20.2 19.9-.3 34.3 4.3 45.6 9l5.4 2.7 8.2-51.5z" fill="#00579f"/>
  <path d="M661.6 100.3h-46.8c-14.5 0-25.4 4.2-31.7 19.5L486.7 334.2h63.7s10.4-28.9 12.7-35.3h77.9c1.8 8.2 7.4 35.3 7.4 35.3H704l-42.4-233.9zm-75.1 150.6c5-13.6 24.4-65.8 24.4-65.8-.4.6 5-13.8 8.1-22.7l4.2 20.5s11.7 56.8 14.2 68h-50.9z" fill="#00579f"/>
  <path d="M232.8 100.3L173.5 261l-6.4-32.4c-11-37.5-45.5-78.1-84-98.4l54.3 204h64.1l95.3-233.9h-64z" fill="#00579f"/>
  <path d="M131.9 100.3H35.6l-.7 4.5c76 19.4 126.3 66.3 147.2 122.6l-21.2-108c-3.7-14.8-14.4-19-29-19.1z" fill="#faa61a"/>
</svg>
