<svg xmlns="http://www.w3.org/2000/svg" xmlns:xlink="http://www.w3.org/1999/xlink" width="185" zoomAndPan="magnify" viewBox="0 0 138.75 95.249998" height="127" preserveAspectRatio="xMidYMid meet" version="1.0"><defs><clipPath id="823ecc5053"><path d="M 0.417969 0 L 138.082031 0 L 138.082031 94.503906 L 0.417969 94.503906 Z M 0.417969 0 " clip-rule="nonzero"/></clipPath><clipPath id="596e44684b"><path d="M 15.300781 0 L 123.199219 0 C 127.148438 0 130.933594 1.566406 133.726562 4.359375 C 136.515625 7.148438 138.082031 10.9375 138.082031 14.882812 L 138.082031 80.140625 C 138.082031 84.085938 136.515625 87.871094 133.726562 90.664062 C 130.933594 93.453125 127.148438 95.023438 123.199219 95.023438 L 15.300781 95.023438 C 11.355469 95.023438 7.566406 93.453125 4.777344 90.664062 C 1.984375 87.871094 0.417969 84.085938 0.417969 80.140625 L 0.417969 14.882812 C 0.417969 10.9375 1.984375 7.148438 4.777344 4.359375 C 7.566406 1.566406 11.355469 0 15.300781 0 Z M 15.300781 0 " clip-rule="nonzero"/></clipPath><clipPath id="10429742b1"><path d="M 0.421875 0 L 138.082031 0 L 138.082031 94.503906 L 0.421875 94.503906 Z M 0.421875 0 " clip-rule="nonzero"/></clipPath><clipPath id="03c806f6f1"><path d="M 15.304688 0 L 123.199219 0 C 127.144531 0 130.929688 1.566406 133.722656 4.359375 C 136.511719 7.148438 138.082031 10.933594 138.082031 14.882812 L 138.082031 80.136719 C 138.082031 84.082031 136.511719 87.867188 133.722656 90.660156 C 130.929688 93.449219 127.144531 95.015625 123.199219 95.015625 L 15.304688 95.015625 C 11.355469 95.015625 7.570312 93.449219 4.78125 90.660156 C 1.988281 87.867188 0.421875 84.082031 0.421875 80.136719 L 0.421875 14.882812 C 0.421875 10.933594 1.988281 7.148438 4.78125 4.359375 C 7.570312 1.566406 11.355469 0 15.304688 0 Z M 15.304688 0 " clip-rule="nonzero"/></clipPath><clipPath id="38938085e4"><path d="M 21.292969 27 L 96 27 L 96 60 L 21.292969 60 Z M 21.292969 27 " clip-rule="nonzero"/></clipPath><clipPath id="cab56bc4e0"><path d="M 97 37 L 117.285156 37 L 117.285156 68 L 97 68 Z M 97 37 " clip-rule="nonzero"/></clipPath></defs><g clip-path="url(#823ecc5053)"><g clip-path="url(#596e44684b)"><path fill="#ffffff" d="M 0.417969 0 L 138.082031 0 L 138.082031 95.023438 L 0.417969 95.023438 Z M 0.417969 0 " fill-opacity="1" fill-rule="nonzero"/></g></g><g clip-path="url(#10429742b1)"><g clip-path="url(#03c806f6f1)"><path stroke-linecap="butt" transform="matrix(0.744141, 0, 0, 0.744141, 0.420895, 0.000000992187)" fill="none" stroke-linejoin="miter" d="M 20.001318 -0.00000133333 L 164.993453 -0.00000133333 C 170.29529 -0.00000133333 175.381905 2.104986 179.135186 5.858267 C 182.883218 9.606298 184.993454 14.692913 184.993454 20 L 184.993454 107.690294 C 184.993454 112.992132 182.883218 118.078746 179.135186 121.832027 C 175.381905 125.580059 170.29529 127.685046 164.993453 127.685046 L 20.001318 127.685046 C 14.694231 127.685046 9.607616 125.580059 5.859585 121.832027 C 2.106303 118.078746 0.00131646 112.992132 0.00131646 107.690294 L 0.00131646 20 C 0.00131646 14.692913 2.106303 9.606298 5.859585 5.858267 C 9.607616 2.104986 14.694231 -0.00000133333 20.001318 -0.00000133333 Z M 20.001318 -0.00000133333 " stroke="#e8e8e8" stroke-width="16" stroke-opacity="1" stroke-miterlimit="4"/></g></g><g clip-path="url(#38938085e4)"><path fill="#000000" d="M 34.105469 34.707031 C 35.90625 34.859375 37.707031 33.796875 38.835938 32.4375 L 38.835938 32.433594 C 39.941406 31.050781 40.675781 29.179688 40.492188 27.292969 C 38.890625 27.367188 36.925781 28.355469 35.800781 29.742188 C 34.761719 30.925781 33.878906 32.878906 34.105469 34.707031 Z M 29.652344 59.472656 C 31.640625 59.398438 32.425781 58.164062 34.828125 58.164062 C 37.242188 58.164062 37.945312 59.472656 40.046875 59.445312 C 42.222656 59.402344 43.585938 57.46875 44.917969 55.484375 C 46.429688 53.234375 47.0625 51.054688 47.09375 50.933594 C 47.050781 50.890625 42.894531 49.273438 42.847656 44.402344 C 42.800781 40.324219 46.132812 38.386719 46.277344 38.265625 C 44.402344 35.433594 41.476562 35.132812 40.457031 35.054688 L 40.464844 35.058594 C 37.855469 34.902344 35.621094 36.5625 34.390625 36.5625 C 33.128906 36.5625 31.242188 35.132812 29.171875 35.175781 C 26.492188 35.222656 24 36.761719 22.636719 39.210938 C 19.816406 44.125 21.898438 51.390625 24.625 55.394531 C 25.960938 57.371094 27.550781 59.550781 29.652344 59.472656 Z M 78.289062 44.039062 L 82.382812 44.039062 C 82.726562 42.210938 84.390625 41.007812 86.675781 41.007812 C 89.449219 41.007812 91.011719 42.3125 91.011719 44.734375 L 91.011719 46.378906 L 85.34375 46.730469 C 80.078125 47.050781 77.226562 49.242188 77.226562 53.046875 C 77.242188 56.882812 80.179688 59.4375 84.394531 59.441406 C 87.246094 59.441406 89.886719 57.980469 91.082031 55.652344 L 91.171875 55.652344 L 91.171875 59.21875 L 95.371094 59.21875 L 95.371094 44.449219 C 95.371094 40.175781 91.996094 37.402344 86.808594 37.402344 C 81.992188 37.402344 78.425781 40.199219 78.289062 44.039062 Z M 91.027344 51.183594 C 91.027344 53.953125 88.699219 55.929688 85.628906 55.929688 C 83.210938 55.929688 81.667969 54.742188 81.667969 52.945312 C 81.667969 51.070312 83.152344 49.992188 85.988281 49.824219 L 91.027344 49.507812 Z M 55.519531 29.542969 L 55.519531 59.214844 L 60.066406 59.214844 L 60.066406 49.074219 L 66.347656 49.074219 C 72.09375 49.074219 76.113281 45.070312 76.113281 39.285156 C 76.113281 33.503906 72.15625 29.542969 66.496094 29.542969 Z M 71.496094 39.300781 C 71.496094 43.046875 69.25 45.210938 65.285156 45.210938 L 60.066406 45.210938 L 60.066406 33.425781 L 65.300781 33.425781 C 69.246094 33.425781 71.496094 35.554688 71.496094 39.300781 Z M 71.496094 39.300781 " fill-opacity="1" fill-rule="nonzero"/></g><g clip-path="url(#cab56bc4e0)"><path fill="#000000" d="M 107.234375 55.210938 L 101.894531 37.691406 L 97.15625 37.691406 L 104.835938 59.292969 L 104.414062 60.601562 C 103.722656 62.820312 102.597656 63.691406 100.589844 63.691406 C 100.230469 63.691406 99.542969 63.648438 99.253906 63.617188 L 99.253906 67.179688 C 99.527344 67.246094 100.652344 67.289062 101 67.289062 L 100.996094 67.28125 C 105.417969 67.28125 107.5 65.5625 109.320312 60.371094 L 117.285156 37.691406 L 112.664062 37.691406 L 107.324219 55.210938 Z M 107.234375 55.210938 " fill-opacity="1" fill-rule="nonzero"/></g></svg>