<svg xmlns="http://www.w3.org/2000/svg" xmlns:xlink="http://www.w3.org/1999/xlink" width="185" zoomAndPan="magnify" viewBox="0 0 138.75 95.249998" height="127" preserveAspectRatio="xMidYMid meet" version="1.0"><defs><clipPath id="b63c9dbefe"><path d="M 0.417969 0 L 138.082031 0 L 138.082031 94.503906 L 0.417969 94.503906 Z M 0.417969 0 " clip-rule="nonzero"/></clipPath><clipPath id="9dae5d8fde"><path d="M 15.300781 0 L 123.199219 0 C 127.148438 0 130.933594 1.566406 133.726562 4.359375 C 136.515625 7.148438 138.082031 10.9375 138.082031 14.882812 L 138.082031 80.140625 C 138.082031 84.085938 136.515625 87.871094 133.726562 90.664062 C 130.933594 93.453125 127.148438 95.023438 123.199219 95.023438 L 15.300781 95.023438 C 11.355469 95.023438 7.566406 93.453125 4.777344 90.664062 C 1.984375 87.871094 0.417969 84.085938 0.417969 80.140625 L 0.417969 14.882812 C 0.417969 10.9375 1.984375 7.148438 4.777344 4.359375 C 7.566406 1.566406 11.355469 0 15.300781 0 Z M 15.300781 0 " clip-rule="nonzero"/></clipPath><clipPath id="7dc8d7041a"><path d="M 0.421875 0 L 138.082031 0 L 138.082031 94.503906 L 0.421875 94.503906 Z M 0.421875 0 " clip-rule="nonzero"/></clipPath><clipPath id="eaaad20a79"><path d="M 15.304688 0 L 123.199219 0 C 127.144531 0 130.929688 1.566406 133.722656 4.359375 C 136.511719 7.148438 138.082031 10.933594 138.082031 14.882812 L 138.082031 80.136719 C 138.082031 84.082031 136.511719 87.867188 133.722656 90.660156 C 130.929688 93.449219 127.144531 95.015625 123.199219 95.015625 L 15.304688 95.015625 C 11.355469 95.015625 7.570312 93.449219 4.78125 90.660156 C 1.988281 87.867188 0.421875 84.082031 0.421875 80.136719 L 0.421875 14.882812 C 0.421875 10.933594 1.988281 7.148438 4.78125 4.359375 C 7.570312 1.566406 11.355469 0 15.304688 0 Z M 15.304688 0 " clip-rule="nonzero"/></clipPath><clipPath id="d060542394"><path d="M 61 29 L 113.601562 29 L 113.601562 65 L 61 65 Z M 61 29 " clip-rule="nonzero"/></clipPath><clipPath id="3f972a3523"><path d="M 25.050781 39 L 32 39 L 32 53 L 25.050781 53 Z M 25.050781 39 " clip-rule="nonzero"/></clipPath></defs><g clip-path="url(#b63c9dbefe)"><g clip-path="url(#9dae5d8fde)"><path fill="#ffffff" d="M 0.417969 0 L 138.082031 0 L 138.082031 95.023438 L 0.417969 95.023438 Z M 0.417969 0 " fill-opacity="1" fill-rule="nonzero"/></g></g><g clip-path="url(#7dc8d7041a)"><g clip-path="url(#eaaad20a79)"><path stroke-linecap="butt" transform="matrix(0.744141, 0, 0, 0.744141, 0.420895, 0.000000992187)" fill="none" stroke-linejoin="miter" d="M 20.001318 -0.00000133333 L 164.993453 -0.00000133333 C 170.29529 -0.00000133333 175.381905 2.104986 179.135186 5.858267 C 182.883218 9.606298 184.993454 14.692913 184.993454 20 L 184.993454 107.690294 C 184.993454 112.992132 182.883218 118.078746 179.135186 121.832027 C 175.381905 125.580059 170.29529 127.685046 164.993453 127.685046 L 20.001318 127.685046 C 14.694231 127.685046 9.607616 125.580059 5.859585 121.832027 C 2.106303 118.078746 0.00131646 112.992132 0.00131646 107.690294 L 0.00131646 20 C 0.00131646 14.692913 2.106303 9.606298 5.859585 5.858267 C 9.607616 2.104986 14.694231 -0.00000133333 20.001318 -0.00000133333 Z M 20.001318 -0.00000133333 " stroke="#e8e8e8" stroke-width="16" stroke-opacity="1" stroke-miterlimit="4"/></g></g><g clip-path="url(#d060542394)"><path fill="#5f6368" d="M 65.328125 45.46875 L 65.328125 56.183594 L 61.925781 56.183594 L 61.925781 29.714844 L 70.945312 29.714844 C 72.03125 29.691406 73.082031 29.878906 74.09375 30.277344 C 75.109375 30.675781 76.003906 31.25 76.785156 32.007812 C 78.367188 33.433594 79.257812 35.46875 79.226562 37.59375 C 79.25 38.664062 79.046875 39.6875 78.621094 40.671875 C 78.195312 41.652344 77.582031 42.5 76.785156 43.214844 C 75.207031 44.71875 73.257812 45.472656 70.945312 45.46875 Z M 65.328125 32.972656 L 65.328125 42.21875 L 71.03125 42.21875 C 72.296875 42.253906 73.511719 41.757812 74.394531 40.847656 C 76.179688 39.113281 76.226562 36.253906 74.484375 34.46875 L 74.394531 34.378906 C 73.960938 33.914062 73.449219 33.5625 72.863281 33.316406 C 72.277344 33.070312 71.664062 32.957031 71.03125 32.972656 Z M 87.0625 37.484375 C 89.578125 37.484375 91.558594 38.15625 93.011719 39.496094 C 94.46875 40.839844 95.195312 42.6875 95.195312 45.019531 L 95.195312 56.1875 L 91.941406 56.1875 L 91.941406 53.671875 L 91.796875 53.671875 C 90.386719 55.738281 88.511719 56.777344 86.175781 56.777344 C 84.179688 56.777344 82.511719 56.1875 81.167969 55 C 80.515625 54.453125 80.015625 53.789062 79.660156 53.011719 C 79.308594 52.234375 79.140625 51.417969 79.15625 50.566406 C 79.15625 48.691406 79.863281 47.203125 81.28125 46.09375 C 82.695312 44.988281 84.585938 44.429688 86.953125 44.429688 C 88.972656 44.429688 90.636719 44.800781 91.941406 45.539062 L 91.941406 44.757812 C 91.949219 44.179688 91.828125 43.625 91.582031 43.097656 C 91.332031 42.570312 90.984375 42.121094 90.539062 41.753906 C 89.605469 40.910156 88.511719 40.496094 87.253906 40.511719 C 85.355469 40.511719 83.851562 41.3125 82.746094 42.914062 L 79.753906 41.027344 C 81.394531 38.664062 83.832031 37.484375 87.0625 37.484375 Z M 82.660156 50.640625 C 82.660156 51.078125 82.757812 51.492188 82.957031 51.886719 C 83.152344 52.277344 83.429688 52.601562 83.785156 52.859375 C 84.539062 53.449219 85.472656 53.765625 86.425781 53.742188 C 87.144531 53.742188 87.835938 53.601562 88.496094 53.328125 C 89.160156 53.050781 89.746094 52.660156 90.253906 52.152344 C 91.378906 51.089844 91.941406 49.851562 91.941406 48.417969 C 90.878906 47.574219 89.40625 47.148438 87.507812 47.148438 C 86.128906 47.148438 84.972656 47.480469 84.050781 48.148438 C 83.125 48.832031 82.660156 49.65625 82.660156 50.640625 Z M 113.863281 38.074219 L 102.511719 64.171875 L 99 64.171875 L 103.214844 55.039062 L 95.742188 38.074219 L 99.441406 38.074219 L 104.839844 51.082031 L 104.914062 51.082031 L 110.164062 38.074219 Z M 113.863281 38.074219 " fill-opacity="1" fill-rule="nonzero"/></g><path fill="#4285f4" d="M 54.859375 46.21875 C 54.859375 45.183594 54.773438 44.152344 54.597656 43.128906 L 40.253906 43.128906 L 40.253906 48.984375 L 48.46875 48.984375 C 48.296875 49.929688 47.949219 50.800781 47.421875 51.605469 C 46.894531 52.40625 46.230469 53.074219 45.429688 53.605469 L 45.429688 57.40625 L 50.335938 57.40625 C 53.207031 54.765625 54.859375 50.851562 54.859375 46.21875 Z M 54.859375 46.21875 " fill-opacity="1" fill-rule="nonzero"/><path fill="#34a853" d="M 40.253906 61.082031 C 44.355469 61.082031 47.816406 59.734375 50.335938 57.410156 L 45.429688 53.605469 C 44.066406 54.535156 42.308594 55.0625 40.253906 55.0625 C 36.289062 55.0625 32.921875 52.386719 31.714844 48.785156 L 26.667969 48.785156 L 26.667969 52.703125 C 27.300781 53.960938 28.09375 55.113281 29.046875 56.152344 C 29.996094 57.191406 31.074219 58.078125 32.273438 58.820312 C 33.472656 59.558594 34.75 60.121094 36.105469 60.507812 C 37.460938 60.890625 38.84375 61.082031 40.253906 61.082031 Z M 40.253906 61.082031 " fill-opacity="1" fill-rule="nonzero"/><g clip-path="url(#3f972a3523)"><path fill="#fbbc04" d="M 31.71875 48.785156 C 31.0625 46.84375 31.0625 44.902344 31.71875 42.960938 L 31.71875 39.046875 L 26.667969 39.046875 C 26.136719 40.105469 25.734375 41.214844 25.460938 42.367188 C 25.1875 43.523438 25.050781 44.691406 25.050781 45.878906 C 25.050781 47.0625 25.1875 48.234375 25.460938 49.386719 C 25.734375 50.539062 26.136719 51.648438 26.667969 52.707031 Z M 31.71875 48.785156 " fill-opacity="1" fill-rule="nonzero"/></g><path fill="#ea4335" d="M 40.253906 36.691406 C 41.339844 36.671875 42.386719 36.859375 43.394531 37.257812 C 44.40625 37.652344 45.300781 38.222656 46.085938 38.96875 L 50.429688 34.632812 C 49.054688 33.339844 47.484375 32.351562 45.726562 31.664062 C 43.964844 30.980469 42.140625 30.648438 40.253906 30.667969 C 38.84375 30.667969 37.460938 30.859375 36.105469 31.246094 C 34.75 31.628906 33.472656 32.191406 32.273438 32.929688 C 31.074219 33.671875 29.996094 34.5625 29.046875 35.601562 C 28.09375 36.640625 27.300781 37.789062 26.667969 39.046875 L 31.71875 42.964844 C 32.921875 39.359375 36.289062 36.691406 40.253906 36.691406 Z M 40.253906 36.691406 " fill-opacity="1" fill-rule="nonzero"/></svg>