<svg xmlns="http://www.w3.org/2000/svg" xmlns:xlink="http://www.w3.org/1999/xlink" width="185" zoomAndPan="magnify" viewBox="0 0 138.75 95.249998" height="127" preserveAspectRatio="xMidYMid meet" version="1.0"><defs><clipPath id="39788d600c"><path d="M 0.417969 0 L 138.082031 0 L 138.082031 94.503906 L 0.417969 94.503906 Z M 0.417969 0 " clip-rule="nonzero"/></clipPath><clipPath id="44594fbf57"><path d="M 15.300781 0 L 123.199219 0 C 127.148438 0 130.933594 1.566406 133.726562 4.359375 C 136.515625 7.148438 138.082031 10.9375 138.082031 14.882812 L 138.082031 80.140625 C 138.082031 84.085938 136.515625 87.871094 133.726562 90.664062 C 130.933594 93.453125 127.148438 95.023438 123.199219 95.023438 L 15.300781 95.023438 C 11.355469 95.023438 7.566406 93.453125 4.777344 90.664062 C 1.984375 87.871094 0.417969 84.085938 0.417969 80.140625 L 0.417969 14.882812 C 0.417969 10.9375 1.984375 7.148438 4.777344 4.359375 C 7.566406 1.566406 11.355469 0 15.300781 0 Z M 15.300781 0 " clip-rule="nonzero"/></clipPath><clipPath id="78efa69062"><path d="M 0.421875 0 L 138.082031 0 L 138.082031 94.503906 L 0.421875 94.503906 Z M 0.421875 0 " clip-rule="nonzero"/></clipPath><clipPath id="1b4e7b051d"><path d="M 15.304688 0 L 123.199219 0 C 127.144531 0 130.929688 1.566406 133.722656 4.359375 C 136.511719 7.148438 138.082031 10.933594 138.082031 14.882812 L 138.082031 80.136719 C 138.082031 84.082031 136.511719 87.867188 133.722656 90.660156 C 130.929688 93.449219 127.144531 95.015625 123.199219 95.015625 L 15.304688 95.015625 C 11.355469 95.015625 7.570312 93.449219 4.78125 90.660156 C 1.988281 87.867188 0.421875 84.082031 0.421875 80.136719 L 0.421875 14.882812 C 0.421875 10.933594 1.988281 7.148438 4.78125 4.359375 C 7.570312 1.566406 11.355469 0 15.304688 0 Z M 15.304688 0 " clip-rule="nonzero"/></clipPath><clipPath id="05bf2d9836"><path d="M 32.566406 24 L 70 24 L 70 71 L 32.566406 71 Z M 32.566406 24 " clip-rule="nonzero"/></clipPath><clipPath id="8999358bc7"><path d="M 69 24 L 106.234375 24 L 106.234375 71 L 69 71 Z M 69 24 " clip-rule="nonzero"/></clipPath></defs><g clip-path="url(#39788d600c)"><g clip-path="url(#44594fbf57)"><path fill="#ffffff" d="M 0.417969 0 L 138.082031 0 L 138.082031 95.023438 L 0.417969 95.023438 Z M 0.417969 0 " fill-opacity="1" fill-rule="nonzero"/></g></g><g clip-path="url(#78efa69062)"><g clip-path="url(#1b4e7b051d)"><path stroke-linecap="butt" transform="matrix(0.744141, 0, 0, 0.744141, 0.420895, 0.000000992187)" fill="none" stroke-linejoin="miter" d="M 20.001318 -0.00000133333 L 164.993453 -0.00000133333 C 170.29529 -0.00000133333 175.381905 2.104986 179.135186 5.858267 C 182.883218 9.606298 184.993454 14.692913 184.993454 20 L 184.993454 107.690294 C 184.993454 112.992132 182.883218 118.078746 179.135186 121.832027 C 175.381905 125.580059 170.29529 127.685046 164.993453 127.685046 L 20.001318 127.685046 C 14.694231 127.685046 9.607616 125.580059 5.859585 121.832027 C 2.106303 118.078746 0.00131646 112.992132 0.00131646 107.690294 L 0.00131646 20 C 0.00131646 14.692913 2.106303 9.606298 5.859585 5.858267 C 9.607616 2.104986 14.694231 -0.00000133333 20.001318 -0.00000133333 Z M 20.001318 -0.00000133333 " stroke="#e8e8e8" stroke-width="16" stroke-opacity="1" stroke-miterlimit="4"/></g></g><path fill="#ff5f00" d="M 79.359375 65.300781 L 59.4375 65.300781 L 59.4375 29.5 L 79.359375 29.5 Z M 79.359375 65.300781 " fill-opacity="1" fill-rule="nonzero"/><g clip-path="url(#05bf2d9836)"><path fill="#eb001b" d="M 60.703125 47.402344 C 60.703125 45.679688 60.894531 43.976562 61.28125 42.296875 C 61.664062 40.617188 62.234375 39 62.988281 37.449219 C 63.742188 35.898438 64.660156 34.453125 65.742188 33.113281 C 66.824219 31.769531 68.042969 30.566406 69.398438 29.503906 C 68.5625 28.847656 67.6875 28.25 66.769531 27.71875 C 65.847656 27.183594 64.898438 26.714844 63.914062 26.316406 C 62.929688 25.914062 61.921875 25.585938 60.890625 25.324219 C 59.859375 25.066406 58.816406 24.878906 57.761719 24.765625 C 56.703125 24.652344 55.644531 24.613281 54.582031 24.648438 C 53.519531 24.683594 52.464844 24.792969 51.417969 24.976562 C 50.371094 25.15625 49.34375 25.414062 48.332031 25.738281 C 47.320312 26.066406 46.335938 26.460938 45.382812 26.925781 C 44.425781 27.390625 43.507812 27.917969 42.625 28.511719 C 41.742188 29.105469 40.90625 29.757812 40.117188 30.46875 C 39.328125 31.175781 38.589844 31.9375 37.90625 32.753906 C 37.222656 33.566406 36.597656 34.421875 36.035156 35.324219 C 35.46875 36.226562 34.972656 37.160156 34.539062 38.132812 C 34.105469 39.101562 33.742188 40.097656 33.449219 41.117188 C 33.15625 42.140625 32.933594 43.175781 32.789062 44.230469 C 32.640625 45.28125 32.566406 46.339844 32.566406 47.402344 C 32.566406 48.464844 32.640625 49.523438 32.789062 50.574219 C 32.9375 51.625 33.15625 52.664062 33.449219 53.683594 C 33.742188 54.703125 34.105469 55.699219 34.539062 56.671875 C 34.972656 57.640625 35.46875 58.578125 36.035156 59.476562 C 36.597656 60.378906 37.222656 61.234375 37.90625 62.046875 C 38.589844 62.863281 39.328125 63.625 40.117188 64.332031 C 40.90625 65.042969 41.742188 65.695312 42.625 66.289062 C 43.507812 66.882812 44.425781 67.410156 45.382812 67.875 C 46.335938 68.339844 47.320312 68.734375 48.332031 69.0625 C 49.34375 69.386719 50.371094 69.644531 51.417969 69.824219 C 52.464844 70.007812 53.519531 70.117188 54.582031 70.152344 C 55.644531 70.1875 56.703125 70.148438 57.757812 70.035156 C 58.816406 69.921875 59.859375 69.734375 60.886719 69.476562 C 61.917969 69.214844 62.925781 68.886719 63.910156 68.488281 C 64.894531 68.085938 65.847656 67.617188 66.765625 67.085938 C 67.683594 66.550781 68.5625 65.957031 69.398438 65.300781 C 68.042969 64.234375 66.824219 63.03125 65.742188 61.691406 C 64.660156 60.347656 63.742188 58.902344 62.988281 57.351562 C 62.234375 55.800781 61.664062 54.1875 61.28125 52.507812 C 60.894531 50.828125 60.703125 49.125 60.703125 47.402344 Z M 60.703125 47.402344 " fill-opacity="1" fill-rule="nonzero"/></g><g clip-path="url(#8999358bc7)"><path fill="#f79e1b" d="M 106.234375 47.402344 C 106.234375 48.464844 106.160156 49.523438 106.011719 50.574219 C 105.863281 51.625 105.644531 52.664062 105.351562 53.683594 C 105.058594 54.707031 104.695312 55.703125 104.261719 56.671875 C 103.828125 57.644531 103.328125 58.578125 102.765625 59.480469 C 102.203125 60.378906 101.578125 61.238281 100.894531 62.050781 C 100.210938 62.863281 99.472656 63.625 98.683594 64.335938 C 97.890625 65.046875 97.054688 65.699219 96.175781 66.292969 C 95.292969 66.882812 94.375 67.414062 93.417969 67.878906 C 92.460938 68.339844 91.480469 68.738281 90.46875 69.0625 C 89.457031 69.390625 88.425781 69.644531 87.378906 69.828125 C 86.332031 70.011719 85.277344 70.121094 84.21875 70.15625 C 83.15625 70.191406 82.09375 70.148438 81.039062 70.035156 C 79.980469 69.921875 78.9375 69.738281 77.910156 69.476562 C 76.878906 69.21875 75.871094 68.886719 74.886719 68.488281 C 73.902344 68.085938 72.949219 67.621094 72.03125 67.085938 C 71.113281 66.550781 70.234375 65.957031 69.398438 65.300781 C 74.695312 61.132812 78.097656 54.664062 78.097656 47.402344 C 78.097656 40.140625 74.695312 33.671875 69.398438 29.503906 C 70.234375 28.847656 71.113281 28.25 72.03125 27.71875 C 72.949219 27.183594 73.902344 26.714844 74.886719 26.316406 C 75.871094 25.914062 76.878906 25.585938 77.910156 25.324219 C 78.9375 25.066406 79.980469 24.878906 81.039062 24.765625 C 82.09375 24.652344 83.15625 24.613281 84.21875 24.648438 C 85.277344 24.683594 86.332031 24.792969 87.378906 24.976562 C 88.425781 25.15625 89.457031 25.414062 90.46875 25.738281 C 91.480469 26.066406 92.460938 26.460938 93.417969 26.925781 C 94.375 27.390625 95.292969 27.917969 96.175781 28.511719 C 97.054688 29.105469 97.890625 29.757812 98.683594 30.46875 C 99.472656 31.175781 100.210938 31.9375 100.894531 32.753906 C 101.578125 33.566406 102.203125 34.421875 102.765625 35.324219 C 103.328125 36.226562 103.828125 37.160156 104.261719 38.132812 C 104.695312 39.101562 105.058594 40.097656 105.351562 41.117188 C 105.644531 42.140625 105.863281 43.175781 106.011719 44.230469 C 106.160156 45.28125 106.234375 46.339844 106.234375 47.402344 Z M 106.234375 47.402344 " fill-opacity="1" fill-rule="nonzero"/></g></svg>