<svg xmlns="http://www.w3.org/2000/svg" xmlns:xlink="http://www.w3.org/1999/xlink" width="185" zoomAndPan="magnify" viewBox="0 0 138.75 95.249998" height="127" preserveAspectRatio="xMidYMid meet" version="1.0"><defs><clipPath id="58df8e5623"><path d="M 0.417969 0 L 138.082031 0 L 138.082031 94.503906 L 0.417969 94.503906 Z M 0.417969 0 " clip-rule="nonzero"/></clipPath><clipPath id="b54fe3b411"><path d="M 15.300781 0 L 123.199219 0 C 127.148438 0 130.933594 1.566406 133.726562 4.359375 C 136.515625 7.148438 138.082031 10.9375 138.082031 14.882812 L 138.082031 80.140625 C 138.082031 84.085938 136.515625 87.871094 133.726562 90.664062 C 130.933594 93.453125 127.148438 95.023438 123.199219 95.023438 L 15.300781 95.023438 C 11.355469 95.023438 7.566406 93.453125 4.777344 90.664062 C 1.984375 87.871094 0.417969 84.085938 0.417969 80.140625 L 0.417969 14.882812 C 0.417969 10.9375 1.984375 7.148438 4.777344 4.359375 C 7.566406 1.566406 11.355469 0 15.300781 0 Z M 15.300781 0 " clip-rule="nonzero"/></clipPath><clipPath id="3638347ec2"><path d="M 0.421875 0 L 138.082031 0 L 138.082031 94.503906 L 0.421875 94.503906 Z M 0.421875 0 " clip-rule="nonzero"/></clipPath><clipPath id="7abc2bfad5"><path d="M 15.304688 0 L 123.199219 0 C 127.144531 0 130.929688 1.566406 133.722656 4.359375 C 136.511719 7.148438 138.082031 10.933594 138.082031 14.882812 L 138.082031 80.136719 C 138.082031 84.082031 136.511719 87.867188 133.722656 90.660156 C 130.929688 93.449219 127.144531 95.015625 123.199219 95.015625 L 15.304688 95.015625 C 11.355469 95.015625 7.570312 93.449219 4.78125 90.660156 C 1.988281 87.867188 0.421875 84.082031 0.421875 80.136719 L 0.421875 14.882812 C 0.421875 10.933594 1.988281 7.148438 4.78125 4.359375 C 7.570312 1.566406 11.355469 0 15.304688 0 Z M 15.304688 0 " clip-rule="nonzero"/></clipPath><clipPath id="bbfa925160"><path d="M 13 31 L 51 31 L 51 68.714844 L 13 68.714844 Z M 13 31 " clip-rule="nonzero"/></clipPath><clipPath id="554231a1b5"><path d="M 23 27 L 125.257812 27 L 125.257812 58 L 23 58 Z M 23 27 " clip-rule="nonzero"/></clipPath><clipPath id="3a07a0ba36"><path d="M 48 25.554688 L 54 25.554688 L 54 32 L 48 32 Z M 48 25.554688 " clip-rule="nonzero"/></clipPath></defs><g clip-path="url(#58df8e5623)"><g clip-path="url(#b54fe3b411)"><path fill="#ffffff" d="M 0.417969 0 L 138.082031 0 L 138.082031 95.023438 L 0.417969 95.023438 Z M 0.417969 0 " fill-opacity="1" fill-rule="nonzero"/></g></g><g clip-path="url(#3638347ec2)"><g clip-path="url(#7abc2bfad5)"><path stroke-linecap="butt" transform="matrix(0.744141, 0, 0, 0.744141, 0.420895, 0.000000992187)" fill="none" stroke-linejoin="miter" d="M 20.001318 -0.00000133333 L 164.993453 -0.00000133333 C 170.29529 -0.00000133333 175.381905 2.104986 179.135186 5.858267 C 182.883218 9.606298 184.993454 14.692913 184.993454 20 L 184.993454 107.690294 C 184.993454 112.992132 182.883218 118.078746 179.135186 121.832027 C 175.381905 125.580059 170.29529 127.685046 164.993453 127.685046 L 20.001318 127.685046 C 14.694231 127.685046 9.607616 125.580059 5.859585 121.832027 C 2.106303 118.078746 0.00131646 112.992132 0.00131646 107.690294 L 0.00131646 20 C 0.00131646 14.692913 2.106303 9.606298 5.859585 5.858267 C 9.607616 2.104986 14.694231 -0.00000133333 20.001318 -0.00000133333 Z M 20.001318 -0.00000133333 " stroke="#e8e8e8" stroke-width="16" stroke-opacity="1" stroke-miterlimit="4"/></g></g><g clip-path="url(#bbfa925160)"><path fill="#feb511" d="M 31.789062 31.285156 C 21.433594 31.285156 13.03125 39.667969 13.03125 50 C 13.03125 60.335938 21.433594 68.714844 31.789062 68.714844 C 42.144531 68.714844 50.546875 60.335938 50.546875 50 C 50.546875 39.667969 42.144531 31.285156 31.789062 31.285156 Z M 31.71875 37.15625 C 38.832031 37.15625 44.589844 42.902344 44.589844 50 C 44.589844 57.097656 38.832031 62.84375 31.71875 62.84375 C 24.605469 62.84375 18.828125 57.097656 18.828125 50 C 18.828125 42.902344 24.605469 37.15625 31.71875 37.15625 Z M 31.71875 37.15625 " fill-opacity="1" fill-rule="nonzero"/></g><g clip-path="url(#554231a1b5)"><path fill="#000000" d="M 56.113281 35.324219 L 56.113281 51.625 L 59.371094 51.625 L 59.371094 40.320312 L 65.152344 51.625 L 68.671875 51.625 L 68.671875 35.324219 L 65.414062 35.324219 L 65.414062 45.492188 L 60.074219 35.324219 Z M 76.117188 39.359375 C 75.707031 39.359375 75.300781 39.398438 74.898438 39.476562 C 74.496094 39.558594 74.105469 39.675781 73.726562 39.832031 C 73.351562 39.988281 72.992188 40.179688 72.648438 40.40625 C 72.308594 40.632812 71.992188 40.890625 71.703125 41.179688 C 71.414062 41.46875 71.15625 41.78125 70.929688 42.121094 C 70.703125 42.460938 70.507812 42.820312 70.351562 43.199219 C 70.195312 43.574219 70.078125 43.964844 70 44.367188 C 69.917969 44.765625 69.878906 45.171875 69.878906 45.582031 C 69.878906 49.023438 72.664062 51.816406 76.117188 51.816406 C 79.566406 51.816406 82.367188 49.023438 82.367188 45.578125 C 82.367188 42.136719 79.566406 39.359375 76.117188 39.359375 Z M 76.132812 42.382812 C 77.898438 42.382812 79.320312 43.820312 79.320312 45.578125 C 79.320312 47.339844 77.898438 48.761719 76.132812 48.761719 C 74.367188 48.761719 72.929688 47.339844 72.929688 45.578125 C 72.929688 45.15625 73.011719 44.75 73.175781 44.355469 C 73.335938 43.964844 73.570312 43.621094 73.867188 43.320312 C 74.167969 43.019531 74.515625 42.789062 74.90625 42.628906 C 75.300781 42.464844 75.707031 42.382812 76.132812 42.382812 Z M 83.214844 39.625 L 83.214844 51.625 L 86.75 51.625 L 86.75 46.753906 C 86.75 45.027344 87.128906 44.003906 87.757812 43.265625 C 88.410156 42.496094 88.980469 42.046875 90.730469 42.023438 L 92.058594 42.042969 L 92.078125 47.53125 C 92.078125 48.371094 92.121094 49.078125 92.3125 49.683594 C 92.746094 51.070312 93.800781 51.828125 95.84375 51.828125 C 96.777344 51.828125 97.6875 51.703125 98.550781 51.386719 L 98.128906 48.953125 C 97.722656 49.105469 97.238281 49.203125 96.871094 49.207031 C 95.832031 49.21875 95.59375 48.765625 95.597656 47.679688 L 95.597656 42.042969 L 98.144531 42.042969 L 98.152344 39.621094 L 95.597656 39.621094 L 95.589844 36.226562 L 92.730469 36.214844 L 92.121094 39.621094 L 90.457031 39.621094 C 89.925781 39.621094 89.519531 39.628906 89.117188 39.730469 C 87.410156 40.15625 86.710938 41.40625 86.28125 42.191406 L 85.285156 39.621094 Z M 104.792969 39.359375 C 104.382812 39.359375 103.976562 39.398438 103.578125 39.476562 C 103.175781 39.558594 102.785156 39.675781 102.40625 39.832031 C 102.027344 39.988281 101.667969 40.179688 101.328125 40.40625 C 100.988281 40.632812 100.671875 40.890625 100.382812 41.179688 C 100.09375 41.46875 99.835938 41.78125 99.605469 42.121094 C 99.378906 42.460938 99.1875 42.820312 99.03125 43.199219 C 98.875 43.574219 98.757812 43.964844 98.675781 44.367188 C 98.597656 44.765625 98.558594 45.171875 98.558594 45.582031 C 98.558594 49.023438 101.34375 51.816406 104.792969 51.816406 C 108.242188 51.816406 111.046875 49.023438 111.046875 45.578125 C 111.046875 42.136719 108.242188 39.359375 104.792969 39.359375 Z M 104.8125 42.382812 C 106.574219 42.382812 108 43.820312 108 45.578125 C 108 47.339844 106.574219 48.761719 104.8125 48.761719 C 103.046875 48.761719 101.605469 47.339844 101.605469 45.578125 C 101.605469 45.15625 101.6875 44.75 101.851562 44.355469 C 102.015625 43.964844 102.246094 43.621094 102.546875 43.320312 C 102.847656 43.019531 103.195312 42.789062 103.585938 42.628906 C 103.976562 42.464844 104.386719 42.382812 104.8125 42.382812 Z M 118.8125 39.359375 C 117.195312 39.367188 115.867188 40.144531 114.628906 41.472656 L 113.945312 39.621094 L 111.878906 39.621094 L 111.878906 51.625 L 115.328125 51.625 L 115.328125 43.378906 C 115.679688 42.980469 116.480469 42.242188 117.5 42.242188 C 118.796875 42.242188 119.269531 43.074219 119.269531 44.007812 L 119.285156 51.625 L 122.808594 51.625 L 122.808594 43.902344 C 122.808594 40.898438 121.058594 39.347656 118.8125 39.359375 Z M 123.128906 41.015625 L 123.128906 39.867188 L 122.789062 39.867188 L 122.789062 39.628906 L 123.730469 39.628906 L 123.730469 39.867188 L 123.386719 39.867188 L 123.386719 41.015625 Z M 123.910156 41.015625 L 123.910156 39.628906 L 124.28125 39.628906 L 124.53125 40.546875 L 124.765625 39.628906 L 125.117188 39.628906 L 125.117188 41.015625 L 124.921875 41.015625 L 124.921875 39.9375 L 124.617188 41.015625 L 124.429688 41.015625 L 124.148438 39.917969 L 124.148438 41.015625 Z M 50.722656 27.023438 L 50.722656 28.457031 L 52.15625 28.457031 L 52.15625 27.023438 Z M 50.722656 28.457031 L 48.058594 28.457031 L 48.058594 29.886719 L 50.722656 29.886719 Z M 48.058594 29.886719 L 46.726562 29.886719 L 46.726562 32.683594 L 48.058594 32.683594 Z M 48.058594 32.683594 L 48.058594 34.046875 L 49.425781 34.046875 L 49.425781 32.683594 Z M 49.425781 32.683594 L 50.929688 32.683594 L 50.929688 31.339844 L 49.425781 31.339844 Z M 48.058594 34.046875 L 46.726562 34.046875 L 46.726562 35.445312 L 45.34375 35.445312 L 45.34375 34.046875 L 43.085938 34.046875 L 43.085938 35.042969 L 41.859375 35.042969 L 41.859375 36.265625 L 43.207031 36.265625 L 43.207031 37.628906 L 41.839844 37.628906 L 41.859375 36.265625 L 40.386719 36.265625 L 40.386719 38.414062 L 39.023438 38.414062 L 39.023438 39.761719 L 38.09375 39.761719 L 38.09375 41.125 L 37.113281 41.125 C 35.003906 44.574219 33.3125 47.765625 32.332031 50.121094 C 29.644531 46.550781 28.382812 45.265625 26.113281 44.007812 C 25.304688 43.558594 24.582031 43.347656 24.066406 43.640625 C 23.527344 43.945312 23.371094 44.902344 24.046875 45.648438 C 28.257812 50.300781 29.015625 52.78125 30.546875 56.328125 C 31 57.382812 31.863281 57.835938 32.839844 57.863281 C 33.363281 57.878906 34.003906 57.722656 34.433594 57.21875 C 34.632812 56.984375 34.691406 56.664062 34.855469 56.273438 C 36.132812 53.195312 37.554688 50.109375 39.601562 47.171875 L 39.617188 45.632812 L 40.703125 45.632812 L 40.6875 44.269531 L 41.859375 44.269531 L 41.84375 42.644531 L 43.207031 42.644531 L 43.207031 41.160156 L 41.824219 41.160156 L 41.84375 39.761719 L 43.207031 39.761719 L 43.207031 41.160156 L 44.574219 41.160156 L 44.574219 39.742188 L 45.644531 39.742188 L 45.644531 38.082031 L 46.886719 38.082031 L 46.886719 36.949219 L 48.058594 36.949219 Z M 45.34375 34.046875 L 46.726562 34.046875 L 46.726562 32.683594 L 45.34375 32.683594 Z M 45.34375 32.683594 L 45.34375 31.375 L 43.960938 31.375 L 43.960938 32.683594 Z M 45.34375 32.683594 " fill-opacity="1" fill-rule="nonzero"/></g><g clip-path="url(#3a07a0ba36)"><path fill="#feb511" d="M 48.058594 29.894531 L 49.421875 29.894531 L 49.421875 31.332031 L 48.058594 31.332031 Z M 52.148438 28.460938 L 53.625 28.460938 L 53.625 29.894531 L 52.148438 29.894531 Z M 52.148438 25.554688 L 53.625 25.554688 L 53.625 27.023438 L 52.148438 27.023438 Z M 52.148438 25.554688 " fill-opacity="1" fill-rule="nonzero"/></g><path fill="#999999" d="M 56.890625 64.535156 L 56.238281 64.535156 L 56.238281 55.589844 L 57.335938 55.589844 L 57.335938 58.898438 C 57.769531 58.355469 58.375 57.984375 59.046875 58.003906 C 60.867188 58.058594 61.539062 59.675781 61.558594 61.242188 C 61.582031 63.113281 60.550781 64.640625 58.882812 64.660156 C 58.167969 64.667969 57.546875 64.351562 57.140625 63.753906 Z M 57.34375 63.121094 C 57.789062 63.53125 57.875 63.753906 58.742188 63.761719 C 60.042969 63.773438 60.375 62.332031 60.375 61.332031 C 60.371094 60.070312 60.023438 58.988281 58.894531 58.957031 C 58.183594 58.9375 57.695312 59.285156 57.355469 59.671875 Z M 62.503906 66.769531 L 62.648438 65.945312 C 63.566406 66.125 64.230469 65.929688 64.59375 64.917969 L 62.316406 58.132812 L 63.457031 58.132812 L 65.0625 63.539062 L 66.582031 58.132812 L 67.695312 58.132812 L 65.484375 65.160156 C 64.972656 66.785156 63.78125 67.070312 62.503906 66.769531 Z M 71.050781 63.59375 L 71.605469 62.824219 C 72.457031 63.429688 73.09375 63.675781 74.136719 63.679688 C 75.265625 63.6875 75.988281 63.101562 75.980469 62.195312 C 75.964844 59.648438 71.585938 61.078125 71.511719 57.683594 C 71.476562 56.195312 72.804688 55.464844 74.085938 55.457031 C 75.054688 55.449219 75.960938 55.597656 76.578125 56.03125 L 76.09375 56.898438 C 75.804688 56.609375 74.761719 56.417969 74.195312 56.414062 C 73.207031 56.40625 72.585938 56.796875 72.558594 57.621094 C 72.472656 60.054688 77.085938 58.71875 77.078125 62.167969 C 77.078125 63.777344 75.871094 64.617188 74.132812 64.628906 C 72.527344 64.644531 71.335938 63.921875 71.050781 63.59375 Z M 84.335938 64.527344 L 84.335938 58.140625 L 85.011719 58.140625 L 85.273438 59.183594 C 85.804688 58.476562 86.726562 58.007812 87.5 58.007812 C 88.414062 58.011719 88.804688 58.65625 88.921875 59.128906 C 89.5 58.457031 90.273438 58.007812 91.058594 58.003906 C 92.410156 57.992188 92.71875 58.976562 92.71875 60.078125 L 92.71875 64.527344 L 91.621094 64.53125 L 91.621094 60.429688 C 91.621094 59.53125 91.515625 58.949219 90.742188 58.964844 C 89.886719 58.984375 89.433594 59.542969 89.121094 59.820312 L 89.121094 64.53125 L 87.984375 64.53125 L 87.984375 60.308594 C 87.984375 59.453125 87.84375 58.957031 87.117188 58.972656 C 86.382812 58.988281 86.167969 59.28125 85.457031 59.84375 L 85.457031 64.53125 Z M 98.148438 63.765625 C 97.582031 64.359375 96.855469 64.640625 96.171875 64.636719 C 95.082031 64.625 94.203125 63.964844 94.207031 62.890625 C 94.210938 61.582031 95.117188 61.21875 95.894531 60.960938 C 96.660156 60.707031 97.269531 60.621094 97.964844 60.5 C 97.992188 59.359375 97.753906 58.9375 96.820312 58.933594 C 95.976562 58.925781 95.253906 59.308594 94.945312 59.46875 L 94.546875 58.738281 C 94.855469 58.5 95.625 58.015625 96.890625 58.003906 C 98.28125 57.992188 99.105469 58.769531 99.109375 60.226562 L 99.109375 64.53125 L 98.433594 64.53125 Z M 97.972656 61.242188 C 97.285156 61.375 96.90625 61.488281 96.363281 61.660156 C 95.671875 61.882812 95.335938 62.230469 95.34375 62.867188 C 95.351562 63.535156 95.792969 63.789062 96.339844 63.777344 C 96.996094 63.761719 97.417969 63.546875 97.96875 63.132812 Z M 110.691406 63.664062 L 110.859375 64.425781 C 110.476562 64.636719 109.902344 64.621094 109.671875 64.625 C 108.320312 64.628906 108.117188 63.753906 108.117188 62.753906 L 108.117188 58.925781 L 107.160156 58.925781 L 107.160156 58.132812 L 108.117188 58.132812 L 108.441406 56.3125 L 109.226562 56.308594 L 109.226562 58.132812 L 110.667969 58.132812 L 110.667969 58.925781 L 109.226562 58.925781 L 109.226562 62.8125 C 109.226562 63.761719 109.621094 63.765625 109.996094 63.78125 C 110.355469 63.796875 110.691406 63.664062 110.691406 63.664062 Z M 116.257812 63.128906 L 116.722656 63.792969 C 116.234375 64.171875 115.6875 64.636719 114.511719 64.640625 C 112.554688 64.648438 111.683594 63.152344 111.691406 61.378906 C 111.699219 59.605469 112.519531 58.015625 114.324219 58.003906 C 116.566406 57.992188 116.882812 60.152344 116.878906 61.660156 L 112.878906 61.660156 C 112.878906 62.871094 113.371094 63.746094 114.382812 63.757812 C 115.421875 63.765625 116.257812 63.128906 116.257812 63.128906 Z M 112.875 60.894531 L 115.722656 60.894531 C 115.667969 59.890625 115.40625 58.835938 114.332031 58.851562 C 113.179688 58.863281 112.953125 59.925781 112.875 60.894531 Z M 122.710938 63.789062 C 122.253906 64.234375 121.523438 64.617188 120.585938 64.625 C 118.785156 64.636719 117.898438 63.253906 117.898438 61.335938 C 117.898438 59.429688 118.859375 58.007812 120.734375 58.003906 C 121.5625 58 122.160156 58.332031 122.589844 58.679688 L 122.105469 59.414062 C 121.835938 59.199219 121.238281 58.902344 120.71875 58.90625 C 119.445312 58.925781 119.050781 59.863281 119.050781 61.308594 C 119.054688 62.511719 119.320312 63.726562 120.714844 63.742188 C 121.128906 63.746094 121.628906 63.597656 122.167969 63.132812 Z M 77.933594 66.769531 L 78.074219 65.945312 C 78.996094 66.125 79.660156 65.929688 80.019531 64.917969 L 77.742188 58.132812 L 78.882812 58.132812 L 80.492188 63.539062 L 82.011719 58.132812 L 83.125 58.132812 L 80.910156 65.160156 C 80.402344 66.785156 79.207031 67.070312 77.933594 66.769531 Z M 100.972656 64.527344 L 100.972656 58.140625 L 101.648438 58.140625 L 101.910156 59.183594 C 102.445312 58.476562 103.4375 58.003906 104.339844 58.007812 C 105.503906 58.019531 105.960938 59.042969 105.960938 60.121094 L 105.960938 64.53125 L 104.824219 64.53125 L 104.824219 60.308594 C 104.824219 59.453125 104.683594 58.957031 103.953125 58.972656 C 103.21875 58.988281 102.804688 59.28125 102.09375 59.84375 L 102.09375 64.53125 Z M 100.972656 64.527344 " fill-opacity="1" fill-rule="nonzero"/></svg>