<svg xmlns="http://www.w3.org/2000/svg" viewBox="0 0 430 430" preserveAspectRatio="xMidYMid meet">
  <!-- Spodní ikona obnovení (modrá) -->
  <path d="M103.669,-89.737 C103.669,-89.737 102.418,-73.92 102.418,-73.92 C100.972,-55.638 94.983,-38.007 84.994,-22.628 C75.005,-7.249 61.332,5.392 45.217,14.146 C29.103,22.9 11.057,27.491 -7.282,27.5 C-7.282,27.5 -7.292,27.5 -7.292,27.5 C-22.701,27.513 -37.941,24.279 -52.017,18.01 C-64.422,12.485 -75.679,4.713 -85.226,-4.9 C-85.226,-4.9 -63.778,-26.347 -63.778,-26.347 C-61.941,-28.184 -63.148,-31.328 -65.742,-31.465 C-65.742,-31.465 -165.686,-36.725 -165.686,-36.725 C-167.465,-36.819 -168.934,-35.35 -168.84,-33.571 C-168.84,-33.571 -163.58,66.373 -163.58,66.373 C-163.443,68.967 -160.299,70.174 -158.462,68.337 C-158.462,68.337 -131.188,41.062 -131.188,41.062 C-116.018,56.297 -98.148,68.62 -78.461,77.388 C-56.045,87.371 -31.777,92.52 -7.238,92.5 C21.924,92.483 50.62,85.184 76.245,71.263 C101.873,57.341 123.618,37.237 139.505,12.778 C155.392,-11.681 164.917,-39.721 167.216,-68.796 C167.216,-68.796 168.835,-89.264 168.835,-89.264 C168.973,-91.009 167.594,-92.5 165.844,-92.5 C165.844,-92.5 106.66,-92.5 106.66,-92.5 C105.095,-92.5 103.792,-91.297 103.669,-89.737 z"
        transform="matrix(1,0,0,1,222.265,297.5)"
        fill="rgb(75,179,253)"
        stroke="rgb(18,19,49)"
        stroke-width="7"
        stroke-linecap="round"
        stroke-linejoin="round" />
  
  <!-- Stínový efekt pro spodní ikonu -->
  <path d="M103.669,-89.737 C103.669,-89.737 102.418,-73.92 102.418,-73.92 C100.972,-55.638 94.983,-38.007 84.994,-22.628 C75.005,-7.249 61.332,5.392 45.217,14.146 C29.103,22.9 11.057,27.491 -7.282,27.5 C-7.282,27.5 -7.292,27.5 -7.292,27.5 C-22.701,27.513 -37.941,24.279 -52.017,18.01 C-64.422,12.485 -75.679,4.713 -85.226,-4.9 C-85.226,-4.9 -63.778,-26.347 -63.778,-26.347 C-61.941,-28.184 -63.148,-31.328 -65.742,-31.465 C-65.742,-31.465 -165.686,-36.725 -165.686,-36.725 C-167.465,-36.819 -168.934,-35.35 -168.84,-33.571 C-168.84,-33.571 -163.58,66.373 -163.58,66.373 C-163.443,68.967 -160.299,70.174 -158.462,68.337 C-158.462,68.337 -131.188,41.062 -131.188,41.062 C-116.018,56.297 -98.148,68.62 -78.461,77.388 C-56.045,87.371 -31.777,92.52 -7.238,92.5 C21.924,92.483 50.62,85.184 76.245,71.263 C101.873,57.341 123.618,37.237 139.505,12.778 C155.392,-11.681 164.917,-39.721 167.216,-68.796 C167.216,-68.796 168.835,-89.264 168.835,-89.264 C168.973,-91.009 167.594,-92.5 165.844,-92.5 C165.844,-92.5 106.66,-92.5 106.66,-92.5 C105.095,-92.5 103.792,-91.297 103.669,-89.737 z"
        transform="matrix(1,0,0,1,222.265,297.5)"
        fill="rgb(75,179,253)"
        fill-opacity="0.5"
        style="mix-blend-mode: multiply;" />
  
  <!-- Horní ikona obnovení (modrá) -->
  <path d="M-103.669,89.737 C-103.669,89.737 -102.418,73.92 -102.418,73.92 C-100.972,55.638 -94.983,38.007 -84.994,22.628 C-75.005,7.249 -61.332,-5.392 -45.217,-14.146 C-29.103,-22.9 -11.057,-27.491 7.282,-27.5 C7.282,-27.5 7.292,-27.5 7.292,-27.5 C22.701,-27.513 37.941,-24.279 52.017,-18.01 C64.422,-12.485 75.679,-4.713 85.226,4.9 C85.226,4.9 63.778,26.347 63.778,26.347 C61.941,28.184 63.148,31.329 65.742,31.465 C65.742,31.465 165.686,36.725 165.686,36.725 C167.465,36.819 168.934,35.35 168.84,33.571 C168.84,33.571 163.58,-66.373 163.58,-66.373 C163.443,-68.967 160.299,-70.174 158.462,-68.337 C158.462,-68.337 131.188,-41.062 131.188,-41.062 C116.018,-56.297 98.148,-68.62 78.461,-77.388 C56.045,-87.371 31.777,-92.52 7.238,-92.5 C-21.924,-92.483 -50.62,-85.184 -76.245,-71.263 C-101.873,-57.341 -123.618,-37.237 -139.505,-12.778 C-155.392,11.681 -164.917,39.721 -167.216,68.796 C-167.216,68.796 -168.835,89.264 -168.835,89.264 C-168.973,91.009 -167.594,92.5 -165.844,92.5 C-165.844,92.5 -106.66,92.5 -106.66,92.5 C-105.095,92.5 -103.792,91.297 -103.669,89.737 z"
        transform="matrix(1,0,0,1,207.985,132.5)"
        fill="rgb(75,179,253)"
        stroke="rgb(18,19,49)"
        stroke-width="7"
        stroke-linecap="round"
        stroke-linejoin="round" />
</svg>