<svg xmlns="http://www.w3.org/2000/svg" viewBox="0 0 430 430" preserveAspectRatio="xMidYMid meet">
  <!-- Žlutá hvězda -->
  <path d="M46.477,-41.495 C46.477,-41.495 173.947,-41.445 173.947,-41.445 C173.947,-41.445 173.947,-41.415 173.947,-41.415 C174.637,-41.418 175.31,-41.202 175.868,-40.796 C176.426,-40.39 176.84,-39.818 177.05,-39.161 C177.26,-38.504 177.254,-37.797 177.034,-37.143 C176.814,-36.489 176.391,-35.922 175.827,-35.525 C175.827,-35.525 71.957,38.545 71.957,38.545 C71.19,39.097 70.619,39.88 70.328,40.779 C70.037,41.678 70.04,42.648 70.337,43.545 C70.337,43.545 108.687,165.965 108.687,165.965 C108.916,166.613 108.934,167.317 108.737,167.975 C108.54,168.633 108.138,169.213 107.59,169.628 C107.042,170.043 106.377,170.273 105.69,170.285 C105.003,170.297 104.329,170.091 103.767,169.695 C103.767,169.695 1.187,88.935 1.187,88.935 C0.438,88.393 -0.463,88.1 -1.388,88.1 C-2.313,88.1 -3.214,88.393 -3.963,88.935 C-3.963,88.935 -105.783,167.635 -105.783,167.635 C-106.339,168.039 -107.008,168.256 -107.695,168.256 C-108.382,168.256 -109.052,168.038 -109.607,167.634 C-110.162,167.23 -110.576,166.659 -110.787,166.005 C-110.998,165.351 -110.997,164.648 -110.783,163.995 C-110.783,163.995 -72.063,42.265 -72.063,42.265 C-71.773,41.376 -71.774,40.418 -72.065,39.53 C-72.356,38.642 -72.923,37.87 -73.683,37.325 C-73.683,37.325 -175.863,-36.355 -175.863,-36.355 C-176.418,-36.758 -176.83,-37.326 -177.043,-37.978 C-177.256,-38.63 -177.257,-39.333 -177.046,-39.985 C-176.835,-40.637 -176.423,-41.206 -175.869,-41.61 C-175.315,-42.014 -174.649,-42.233 -173.963,-42.235 C-173.963,-42.235 -48.283,-42.275 -48.283,-42.275 C-47.359,-42.274 -46.457,-42.563 -45.705,-43.101 C-44.953,-43.639 -44.39,-44.4 -44.093,-45.275 C-44.093,-45.275 -4.273,-168.075 -4.273,-168.075 C-4.067,-168.724 -3.656,-169.29 -3.103,-169.688 C-2.55,-170.086 -1.884,-170.295 -1.203,-170.285 C-0.522,-170.297 0.145,-170.089 0.7,-169.693 C1.255,-169.297 1.667,-168.733 1.877,-168.085 C1.877,-168.085 42.287,-44.495 42.287,-44.495 C42.587,-43.621 43.152,-42.863 43.903,-42.325 C44.654,-41.787 45.553,-41.497 46.477,-41.495 z"
        transform="matrix(1,0,0,1,214.963,215.005)"
        fill="rgb(255,199,56)" />
  
  <!-- Stínové efekty (mix-blend-mode) -->
  <path d="M14.957,-26.475 C14.957,-26.475 -87.213,-100.155 -87.213,-100.155 C-87.213,-100.155 -87.213,-100.155 -87.213,-100.155 C-87.785,-100.548 -88.212,-101.118 -88.429,-101.777 C-88.646,-102.436 -88.64,-103.149 -88.413,-103.805 C-88.413,-103.805 88.587,-50.275 88.587,-50.275 C88.587,-50.275 -20.963,103.805 -20.963,103.805 C-21.527,103.415 -21.947,102.851 -22.16,102.199 C-22.373,101.547 -22.368,100.843 -22.143,100.195 C-22.143,100.195 16.577,-21.535 16.577,-21.535 C16.872,-22.423 16.874,-23.383 16.582,-24.272 C16.29,-25.161 15.72,-25.934 14.957,-26.475 z"
        transform="matrix(1,0,0,1,126.413,278.804)"
        fill="rgb(255,199,56)"
        opacity="0.5"
        style="mix-blend-mode: multiply;" />
  
  <path d="M18.7,-89.695 C18.93,-90.403 19.401,-91.008 20.03,-91.405 C20.03,-91.405 20.03,-91.405 20.03,-91.405 C20.557,-91.727 21.162,-91.9 21.78,-91.905 C21.78,-91.905 22.93,91.905 22.93,91.905 C22.93,91.905 -22.93,35.445 -22.93,35.445 C-22.055,34.907 -21.397,34.079 -21.07,33.105 C-21.07,33.105 18.7,-89.695 18.7,-89.695 z"
        transform="matrix(1,0,0,1,192.069,136.632)"
        fill="rgb(255,199,56)"
        opacity="0.5"
        style="mix-blend-mode: multiply;" />
  
  <path d="M50.65,77.777 C50.65,77.777 -51.93,-2.993 -51.93,-2.993 C-51.93,-2.993 -51.93,-2.993 -51.93,-2.993 C-52.662,-3.526 -53.544,-3.813 -54.45,-3.813 C-54.45,-3.813 -53.21,-78.373 -53.21,-78.373 C-53.21,-78.373 54.45,77.707 54.45,77.707 C53.909,78.126 53.247,78.359 52.562,78.372 C51.877,78.385 51.207,78.176 50.65,77.777 z"
        transform="matrix(1,0,0,1,268.225,243.099)"
        fill="rgb(255,199,56)"
        opacity="0.5"
        style="mix-blend-mode: multiply;" />
  
  <path d="M-88.624,12.795 C-88.624,12.795 88.466,-39.915 88.466,-39.915 C88.682,-39.256 88.677,-38.545 88.451,-37.89 C88.225,-37.235 87.791,-36.671 87.216,-36.285 C87.216,-36.285 -16.664,37.785 -16.664,37.785 C-17.396,38.319 -17.95,39.061 -18.254,39.915 C-18.254,39.915 -88.624,12.795 -88.624,12.795 z"
        transform="matrix(1,0,0,1,303.772,151.911)"
        fill="rgb(255,199,56)"
        opacity="0.5"
        style="mix-blend-mode: multiply;" />
  
  <!-- Černý obrys hvězdy -->
  <path d="M46.477,-41.495 C46.477,-41.495 173.947,-41.445 173.947,-41.445 C173.947,-41.445 173.947,-41.415 173.947,-41.415 C174.637,-41.418 175.31,-41.202 175.868,-40.796 C176.426,-40.39 176.84,-39.818 177.05,-39.161 C177.26,-38.504 177.254,-37.797 177.034,-37.143 C176.814,-36.489 176.391,-35.922 175.827,-35.525 C175.827,-35.525 71.957,38.545 71.957,38.545 C71.19,39.097 70.619,39.88 70.328,40.779 C70.037,41.678 70.04,42.648 70.337,43.545 C70.337,43.545 108.687,165.965 108.687,165.965 C108.916,166.613 108.934,167.317 108.737,167.975 C108.54,168.633 108.138,169.213 107.59,169.628 C107.042,170.043 106.377,170.273 105.69,170.285 C105.003,170.297 104.329,170.091 103.767,169.695 C103.767,169.695 1.187,88.935 1.187,88.935 C0.438,88.393 -0.463,88.1 -1.388,88.1 C-2.313,88.1 -3.214,88.393 -3.963,88.935 C-3.963,88.935 -105.783,167.635 -105.783,167.635 C-106.339,168.039 -107.008,168.256 -107.695,168.256 C-108.382,168.256 -109.052,168.038 -109.607,167.634 C-110.162,167.23 -110.576,166.659 -110.787,166.005 C-110.998,165.351 -110.997,164.648 -110.783,163.995 C-110.783,163.995 -72.063,42.265 -72.063,42.265 C-71.773,41.376 -71.774,40.418 -72.065,39.53 C-72.356,38.642 -72.923,37.87 -73.683,37.325 C-73.683,37.325 -175.863,-36.355 -175.863,-36.355 C-176.418,-36.758 -176.83,-37.326 -177.043,-37.978 C-177.256,-38.63 -177.257,-39.333 -177.046,-39.985 C-176.835,-40.637 -176.423,-41.206 -175.869,-41.61 C-175.315,-42.014 -174.649,-42.233 -173.963,-42.235 C-173.963,-42.235 -48.283,-42.275 -48.283,-42.275 C-47.359,-42.274 -46.457,-42.563 -45.705,-43.101 C-44.953,-43.639 -44.39,-44.4 -44.093,-45.275 C-44.093,-45.275 -4.273,-168.075 -4.273,-168.075 C-4.067,-168.724 -3.656,-169.29 -3.103,-169.688 C-2.55,-170.086 -1.884,-170.295 -1.203,-170.285 C-0.522,-170.297 0.145,-170.089 0.7,-169.693 C1.255,-169.297 1.667,-168.733 1.877,-168.085 C1.877,-168.085 42.287,-44.495 42.287,-44.495 C42.587,-43.621 43.152,-42.863 43.903,-42.325 C44.654,-41.787 45.553,-41.497 46.477,-41.495 z"
        transform="matrix(1,0,0,1,214.963,215.005)" 
        fill="none" 
        stroke="rgb(18,19,49)" 
        stroke-width="7" 
        stroke-linecap="round" 
        stroke-linejoin="round" />
</svg>