<svg xmlns="http://www.w3.org/2000/svg" viewBox="0 0 430 430" preserveAspectRatio="xMidYMid meet">
  <!-- Základní kruh (pozadí) -->
  <circle cx="235" cy="215" r="147.5" fill="rgb(235,230,239)" />
  
  <!-- Stínový efekt -->
  <path d="M63.798,122.221 C83.203,122.221 101.732,118.474 118.702,111.664 C93.814,130.826 62.637,142.221 28.798,142.221 C-52.664,142.221 -118.702,76.183 -118.702,-5.279 C-118.702,-67.336 -80.379,-120.442 -26.107,-142.221 C-61.133,-115.253 -83.702,-72.902 -83.702,-25.279 C-83.702,56.183 -17.664,122.221 63.798,122.221z" 
        transform="matrix(1,0,0,1,206.202,220.279)" 
        fill="rgb(235,230,239)" 
        opacity="0.5" 
        style="mix-blend-mode: multiply;" />
  
  <!-- Žlutý mezikruží -->
  <path d="M135,0 C135,74.558 74.558,135 0,135 C-74.558,135 -135,74.558 -135,0 C-135,-74.558 -74.558,-135 0,-135 C74.558,-135 135,-74.558 135,0z M160,0 C160,-88.366 88.366,-160 0,-160 C-88.366,-160 -160,-88.366 -160,0 C-160,88.366 -88.366,160 0,160 C88.366,160 160,88.366 160,0z" 
        transform="matrix(1,0,0,1,235,215)" 
        fill="rgb(255,199,56)" />
  
  <!-- Stín žlutého mezikruží -->
  <path d="M65.96,152.066 C80.885,152.066 95.334,150.022 109.04,146.199 C91.036,153.216 71.447,157.067 50.96,157.067 C-37.406,157.067 -109.04,85.433 -109.04,-2.933 C-109.04,-76.373 -59.561,-138.257 7.88,-157.067 C-51.772,-133.819 -94.04,-75.812 -94.04,-7.934 C-94.04,80.432 -22.406,152.066 65.96,152.066z" 
        transform="matrix(1,0,0,1,184.04,217.933)" 
        fill="rgb(255,199,56)" 
        opacity="0.5" 
        style="mix-blend-mode: multiply;" />
  
  <!-- Černý obrys hlavního kruhu -->
  <circle cx="235" cy="215" r="160" fill="none" stroke="rgb(18,19,49)" stroke-width="7" />
  
  <!-- Hodinová ručička -->
  <line x1="235" y1="214.5" x2="235" y2="121.123" stroke="rgb(18,19,49)" stroke-width="7" stroke-linecap="round" />
  
  <!-- Minutová ručička -->
  <line x1="235" y1="214.5" x2="278.836" y2="170.664" stroke="rgb(18,19,49)" stroke-width="7" stroke-linecap="round" />
  
  <!-- Horizontální čárky (číselník) -->
  <line x1="20" y1="215" x2="125" y2="215" stroke="rgb(18,19,49)" stroke-width="7" stroke-linecap="round" />
  <line x1="45" y1="175" x2="135" y2="175" stroke="rgb(18,19,49)" stroke-width="7" stroke-linecap="round" />
  <line x1="45" y1="255" x2="135" y2="255" stroke="rgb(18,19,49)" stroke-width="7" stroke-linecap="round" />
  <line x1="75" y1="135" x2="150" y2="135" stroke="rgb(18,19,49)" stroke-width="7" stroke-linecap="round" />
  <line x1="75" y1="300" x2="150" y2="300" stroke="rgb(18,19,49)" stroke-width="7" stroke-linecap="round" />
  
  <!-- Středový bod (střed hodin) -->
  <circle cx="235" cy="214.5" r="12.5" fill="rgb(18,19,49)" />
</svg>