<svg xmlns="http://www.w3.org/2000/svg" viewBox="0 0 430 430" preserveAspectRatio="xMidYMid meet">
  <!-- Žlutý kruh (nahoře) -->
  <circle cx="200.5" cy="112.5" r="67.5" fill="rgb(255,199,56)" />
  
  <!-- Stínový efekt žlutého kruhu -->
  <path d="M40.22,56.963 C44.336,56.963 48.367,56.595 52.28,55.889 C41.642,62.89 28.907,66.963 15.22,66.963 C-22.059,66.963 -52.28,36.742 -52.28,-0.537 C-52.28,-33.7 -28.364,-61.277 3.161,-66.963 C-15.176,-54.895 -27.28,-34.13 -27.28,-10.537 C-27.28,26.742 2.941,56.963 40.22,56.963z"
        transform="matrix(1,0,0,1,185.28,113.037)"
        fill="rgb(255,199,56)"
        opacity="0.5"
        style="mix-blend-mode: multiply;" />
  
  <!-- Obrys žlutého kruhu -->
  <circle cx="200.5" cy="112.5" r="67.5" 
          fill="none" 
          stroke="rgb(18,19,49)" 
          stroke-width="7" 
          stroke-linecap="round" 
          stroke-linejoin="round" />
  
  <!-- Modrý podstavec -->
  <path d="M-40.455,-67.5 C-98.194,-67.5 -145,-20.693 -145,37.046 C-145,37.046 -145,67.5 -145,67.5 C-145,67.5 145,67.5 145,67.5 C145,67.5 145,37.046 145,37.046 C145,-20.693 98.193,-67.5 40.454,-67.5 C40.454,-67.5 -40.455,-67.5 -40.455,-67.5z"
        transform="matrix(1,0,0,1,200,282.5)"
        fill="rgb(75,179,253)" />
  
  <!-- Stínový efekt modrého podstavce -->
  <path d="M-40.455,-67.5 C-98.194,-67.5 -145,-20.693 -145,37.046 C-145,37.046 -145.125,61.807 -145.125,61.807 C-145.125,61.807 -145.149,65.105 -144.25,65.75 C-142.997,66.649 -140.375,67.5 -140.375,67.5 C-140.375,67.5 145,67.5 145,67.5 C145,67.5 145,37.046 145,37.046 C145,-20.693 98.193,-67.5 40.454,-67.5 C40.454,-67.5 -40.455,-67.5 -40.455,-67.5z"
        transform="matrix(1,0,0,1,200,282.5)"
        fill="rgb(75,179,253)"
        fill-opacity="0.5"
        style="mix-blend-mode: multiply;" />
  
  <!-- Obrys modrého podstavce -->
  <path d="M-40.455,-67.5 C-98.194,-67.5 -145,-20.693 -145,37.046 C-145,37.046 -145,67.5 -145,67.5 C-145,67.5 145,67.5 145,67.5 C145,67.5 145,37.046 145,37.046 C145,-20.693 98.193,-67.5 40.454,-67.5 C40.454,-67.5 -40.455,-67.5 -40.455,-67.5z"
        transform="matrix(1,0,0,1,200,282.5)"
        fill="none"
        stroke="rgb(18,19,49)"
        stroke-width="7"
        stroke-linecap="butt"
        stroke-linejoin="round" />
  
  <!-- Šedý kruh (odznáček) -->
  <circle cx="320" cy="315" r="70" fill="rgb(235,230,239)" />
  
  <!-- Stínový efekt šedého kruhu -->
  <path d="M34.564,58.417 C41.833,58.417 48.844,57.31 55.436,55.253 C43.936,63.538 29.82,68.418 14.564,68.418 C-24.096,68.418 -55.436,37.078 -55.436,-1.582 C-55.436,-32.973 -34.774,-59.538 -6.308,-68.418 C-23.95,-55.708 -35.436,-34.987 -35.436,-11.583 C-35.436,27.077 -4.096,58.417 34.564,58.417z"
        transform="matrix(1,0,0,1,305.436,316.582)"
        fill="rgb(235,230,239)"
        opacity="0.5"
        style="mix-blend-mode: multiply;" />
  
  <!-- Zelená fajka v šedém kruhu -->
  <path d="M31.597,-22.283 C12.35,-3.024 -13.16,22.5 -13.16,22.5 C-13.16,22.5 -21.539,14.158 -31.514,4.227"
        transform="matrix(1.03737,0,0,1.03737,322.006,317.593)"
        fill="none"
        stroke="rgb(8,168,138)"
        stroke-width="7"
        stroke-linecap="round"
        stroke-linejoin="round" />
  
  <!-- Obrys šedého kruhu -->
  <circle cx="320" cy="315" r="70"
          fill="none"
          stroke="rgb(18,19,49)"
          stroke-width="7"
          stroke-linecap="butt"
          stroke-linejoin="miter"
          stroke-miterlimit="4" />
</svg>