<svg xmlns="http://www.w3.org/2000/svg" xmlns:xlink="http://www.w3.org/1999/xlink" width="185" zoomAndPan="magnify" viewBox="0 0 138.75 95.249998" height="127" preserveAspectRatio="xMidYMid meet" version="1.0"><defs><clipPath id="03ee92f88d"><path d="M 0.417969 0 L 138.082031 0 L 138.082031 94.503906 L 0.417969 94.503906 Z M 0.417969 0 " clip-rule="nonzero"/></clipPath><clipPath id="57c4b7e578"><path d="M 15.300781 0 L 123.199219 0 C 127.148438 0 130.933594 1.566406 133.726562 4.359375 C 136.515625 7.148438 138.082031 10.9375 138.082031 14.882812 L 138.082031 80.140625 C 138.082031 84.085938 136.515625 87.871094 133.726562 90.664062 C 130.933594 93.453125 127.148438 95.023438 123.199219 95.023438 L 15.300781 95.023438 C 11.355469 95.023438 7.566406 93.453125 4.777344 90.664062 C 1.984375 87.871094 0.417969 84.085938 0.417969 80.140625 L 0.417969 14.882812 C 0.417969 10.9375 1.984375 7.148438 4.777344 4.359375 C 7.566406 1.566406 11.355469 0 15.300781 0 Z M 15.300781 0 " clip-rule="nonzero"/></clipPath><clipPath id="a45c5123e5"><path d="M 0.421875 0 L 138.082031 0 L 138.082031 94.503906 L 0.421875 94.503906 Z M 0.421875 0 " clip-rule="nonzero"/></clipPath><clipPath id="ec21f623b7"><path d="M 15.304688 0 L 123.199219 0 C 127.144531 0 130.929688 1.566406 133.722656 4.359375 C 136.511719 7.148438 138.082031 10.933594 138.082031 14.882812 L 138.082031 80.136719 C 138.082031 84.082031 136.511719 87.867188 133.722656 90.660156 C 130.929688 93.449219 127.144531 95.015625 123.199219 95.015625 L 15.304688 95.015625 C 11.355469 95.015625 7.570312 93.449219 4.78125 90.660156 C 1.988281 87.867188 0.421875 84.082031 0.421875 80.136719 L 0.421875 14.882812 C 0.421875 10.933594 1.988281 7.148438 4.78125 4.359375 C 7.570312 1.566406 11.355469 0 15.304688 0 Z M 15.304688 0 " clip-rule="nonzero"/></clipPath><clipPath id="0ebfd9cb13"><path d="M 46 48 L 107 48 L 107 69.636719 L 46 69.636719 Z M 46 48 " clip-rule="nonzero"/></clipPath><clipPath id="374e6dff58"><path d="M 17.632812 24.988281 L 121.066406 24.988281 L 121.066406 48 L 17.632812 48 Z M 17.632812 24.988281 " clip-rule="nonzero"/></clipPath></defs><g clip-path="url(#03ee92f88d)"><g clip-path="url(#57c4b7e578)"><path fill="#ffffff" d="M 0.417969 0 L 138.082031 0 L 138.082031 95.023438 L 0.417969 95.023438 Z M 0.417969 0 " fill-opacity="1" fill-rule="nonzero"/></g></g><g clip-path="url(#a45c5123e5)"><g clip-path="url(#ec21f623b7)"><path stroke-linecap="butt" transform="matrix(0.744141, 0, 0, 0.744141, 0.420895, 0.000000992187)" fill="none" stroke-linejoin="miter" d="M 20.001318 -0.00000133333 L 164.993453 -0.00000133333 C 170.29529 -0.00000133333 175.381905 2.104986 179.135186 5.858267 C 182.883218 9.606298 184.993454 14.692913 184.993454 20 L 184.993454 107.690294 C 184.993454 112.992132 182.883218 118.078746 179.135186 121.832027 C 175.381905 125.580059 170.29529 127.685046 164.993453 127.685046 L 20.001318 127.685046 C 14.694231 127.685046 9.607616 125.580059 5.859585 121.832027 C 2.106303 118.078746 0.00131646 112.992132 0.00131646 107.690294 L 0.00131646 20 C 0.00131646 14.692913 2.106303 9.606298 5.859585 5.858267 C 9.607616 2.104986 14.694231 -0.00000133333 20.001318 -0.00000133333 Z M 20.001318 -0.00000133333 " stroke="#e8e8e8" stroke-width="16" stroke-opacity="1" stroke-miterlimit="4"/></g></g><g clip-path="url(#0ebfd9cb13)"><path fill="#11559c" d="M 59.460938 48.828125 L 54.289062 62.808594 L 53.734375 59.964844 C 52.441406 56.480469 49.644531 52.824219 46.390625 51.332031 L 51.132812 69.292969 L 56.746094 69.292969 L 65.085938 48.800781 L 59.460938 48.800781 Z M 63.90625 69.335938 L 67.21875 48.800781 L 72.519531 48.800781 L 69.207031 69.335938 Z M 88.417969 49.3125 C 87.367188 48.898438 85.71875 48.445312 83.671875 48.445312 C 78.429688 48.445312 74.75 51.230469 74.71875 55.214844 C 74.691406 58.171875 77.347656 59.804688 79.351562 60.789062 C 81.425781 61.796875 82.109375 62.4375 82.109375 63.332031 C 82.09375 64.714844 80.460938 65.339844 78.941406 65.339844 C 76.824219 65.339844 75.699219 65.027344 73.953125 64.273438 L 73.269531 63.945312 L 72.53125 68.539062 C 73.769531 69.109375 76.054688 69.605469 78.441406 69.632812 C 83.996094 69.632812 87.621094 66.875 87.664062 62.621094 C 87.691406 60.277344 86.269531 58.511719 83.214844 57.046875 C 81.371094 56.09375 80.234375 55.46875 80.246094 54.5 C 80.246094 53.648438 81.199219 52.738281 83.289062 52.738281 C 85.019531 52.710938 86.269531 53.109375 87.25 53.535156 L 87.71875 53.777344 Z M 102 48.828125 L 97.90625 48.828125 C 96.644531 48.828125 95.691406 49.183594 95.121094 50.535156 L 87.265625 69.347656 L 92.820312 69.347656 C 92.820312 69.347656 93.730469 66.816406 93.945312 66.261719 C 94.554688 66.261719 99.953125 66.277344 100.722656 66.277344 C 100.890625 66.988281 101.359375 69.347656 101.359375 69.347656 L 106.289062 69.347656 Z M 95.464844 62.054688 C 95.90625 60.875 97.566406 56.308594 97.566406 56.308594 C 97.539062 56.363281 98.007812 55.128906 98.277344 54.34375 L 98.632812 56.109375 C 98.632812 56.109375 99.65625 61.015625 99.867188 62.039062 C 99.042969 62.054688 96.5 62.054688 95.464844 62.054688 Z M 95.464844 62.054688 " fill-opacity="1" fill-rule="nonzero"/></g><path fill="#f2a724" d="M 49.472656 48.8125 L 40.933594 48.8125 L 40.875 49.167969 C 47.511719 50.875 51.902344 55.042969 53.71875 59.976562 L 51.875 50.535156 C 51.5625 49.238281 50.621094 48.855469 49.472656 48.8125 Z M 49.472656 48.8125 " fill-opacity="1" fill-rule="nonzero"/><g clip-path="url(#374e6dff58)"><path fill="#11559c" d="M 24.90625 43.851562 L 21.539062 43.851562 L 17.632812 26.273438 L 21.367188 25.644531 L 24.039062 39.398438 L 30.832031 25.832031 L 34.410156 25.832031 Z M 42.480469 38.105469 L 34.425781 38.105469 C 34.199219 40.550781 35.335938 41.617188 37.265625 41.617188 C 38.871094 41.617188 40.292969 41.019531 41.8125 40.050781 L 41.800781 42.5 C 40.308594 43.4375 38.574219 44.035156 36.542969 44.035156 C 33.035156 44.035156 30.71875 42.03125 31.414062 37.507812 C 32.039062 33.425781 34.867188 30.949219 38.132812 30.949219 C 41.898438 30.949219 43.148438 33.78125 42.609375 37.351562 C 42.582031 37.605469 42.496094 37.917969 42.480469 38.105469 Z M 37.734375 33.113281 C 36.484375 33.113281 35.320312 34.09375 34.78125 36.15625 L 39.769531 36.15625 C 39.851562 34.207031 39.242188 33.113281 37.734375 33.113281 Z M 47.722656 36.566406 L 46.617188 43.765625 L 43.503906 43.765625 L 45.4375 31.207031 L 48.09375 31.207031 L 48.09375 33.722656 C 49.144531 32.273438 50.582031 31.050781 52.554688 30.9375 L 52.570312 34.035156 C 50.582031 34.179688 48.820312 35.21875 47.722656 36.566406 Z M 52.511719 43.765625 L 54.445312 31.207031 L 57.554688 31.207031 L 55.636719 43.765625 Z M 56.347656 29.101562 C 55.3125 29.101562 54.585938 28.375 54.757812 27.339844 C 54.929688 26.273438 55.867188 25.519531 56.902344 25.519531 C 57.910156 25.519531 58.636719 26.273438 58.464844 27.339844 C 58.308594 28.375 57.371094 29.101562 56.347656 29.101562 Z M 66.195312 27.777344 C 65.128906 27.777344 64.488281 28.25 64.320312 29.371094 L 64.035156 31.222656 L 66.421875 31.222656 L 66.421875 33.765625 L 63.636719 33.765625 L 62.101562 43.765625 L 59.003906 43.765625 L 60.539062 33.753906 L 58.722656 33.753906 L 59.121094 31.207031 L 60.9375 31.207031 L 61.265625 29.042969 C 61.691406 26.257812 63.625 25.21875 66.195312 25.21875 C 66.734375 25.21875 67.148438 25.277344 67.460938 25.320312 L 67.488281 27.863281 C 67.175781 27.835938 66.722656 27.777344 66.195312 27.777344 Z M 66.222656 43.765625 L 68.15625 31.207031 L 71.265625 31.207031 L 69.347656 43.765625 Z M 70.074219 29.101562 C 69.035156 29.101562 68.3125 28.375 68.46875 27.339844 C 68.640625 26.273438 69.578125 25.519531 70.613281 25.519531 C 71.621094 25.519531 72.347656 26.273438 72.175781 27.339844 C 72.019531 28.375 71.082031 29.101562 70.074219 29.101562 Z M 83.371094 38.105469 L 75.316406 38.105469 C 75.105469 40.550781 76.226562 41.617188 78.160156 41.617188 C 79.765625 41.617188 81.183594 41.019531 82.707031 40.050781 L 82.691406 42.5 C 81.199219 43.4375 79.464844 44.035156 77.433594 44.035156 C 73.925781 44.035156 71.609375 42.03125 72.304688 37.507812 C 72.929688 33.425781 75.757812 30.949219 79.023438 30.949219 C 82.789062 30.949219 84.039062 33.78125 83.5 37.351562 C 83.472656 37.605469 83.386719 37.917969 83.371094 38.105469 Z M 78.628906 33.113281 C 77.378906 33.113281 76.210938 34.09375 75.671875 36.15625 L 80.660156 36.15625 C 80.746094 34.207031 80.132812 33.113281 78.628906 33.113281 Z M 92.59375 43.765625 L 92.609375 42.015625 C 91.558594 43.082031 90.191406 44.019531 88.460938 44.019531 C 85.832031 44.019531 84.027344 42.070312 84.679688 37.832031 C 85.40625 33.15625 88.289062 31.078125 91.203125 31.078125 C 92.394531 31.078125 93.332031 31.292969 94.042969 31.546875 L 94.980469 25.488281 L 98.179688 24.992188 L 95.292969 43.765625 Z M 93.644531 34.121094 C 92.921875 33.753906 92.351562 33.582031 91.285156 33.582031 C 89.652344 33.582031 88.246094 34.902344 87.835938 37.664062 C 87.464844 40.109375 88.316406 41.246094 89.695312 41.246094 C 90.832031 41.246094 91.828125 40.566406 92.820312 39.527344 Z M 104.828125 43.890625 C 103.347656 43.890625 102.140625 43.652344 101.035156 43.265625 L 103.078125 29.925781 L 105.496094 29.558594 L 104.613281 35.332031 C 105.324219 34.707031 106.304688 34.066406 107.5 34.066406 C 109.5 34.066406 110.851562 35.558594 110.355469 38.757812 C 109.8125 42.257812 107.65625 43.890625 104.828125 43.890625 Z M 106.574219 36.140625 C 105.792969 36.140625 104.996094 36.667969 104.300781 37.378906 L 103.632812 41.6875 C 104.101562 41.859375 104.414062 41.945312 105.082031 41.945312 C 106.574219 41.945312 107.625 41.035156 107.953125 38.871094 C 108.238281 37.050781 107.625 36.140625 106.574219 36.140625 Z M 115.921875 44.289062 C 114.714844 46.636719 113.523438 47.363281 111.691406 47.363281 C 111.277344 47.363281 111.050781 47.320312 110.835938 47.261719 L 110.824219 45.316406 C 111.121094 45.398438 111.449219 45.457031 111.902344 45.457031 C 112.585938 45.457031 113.195312 45.144531 113.59375 44.445312 L 113.90625 43.820312 L 111.902344 34.449219 L 114.417969 34.136719 L 115.582031 40.90625 L 118.722656 34.265625 L 121.066406 34.265625 Z M 115.921875 44.289062 " fill-opacity="1" fill-rule="nonzero"/></g></svg>