<svg xmlns="http://www.w3.org/2000/svg" xmlns:xlink="http://www.w3.org/1999/xlink" width="185" zoomAndPan="magnify" viewBox="0 0 138.75 95.249998" height="127" preserveAspectRatio="xMidYMid meet" version="1.0"><defs><clipPath id="0ecebe75a1"><path d="M 0.417969 0 L 138.082031 0 L 138.082031 94.503906 L 0.417969 94.503906 Z M 0.417969 0 " clip-rule="nonzero"/></clipPath><clipPath id="d4ded17f33"><path d="M 15.300781 0 L 123.199219 0 C 127.148438 0 130.933594 1.566406 133.726562 4.359375 C 136.515625 7.148438 138.082031 10.9375 138.082031 14.882812 L 138.082031 80.140625 C 138.082031 84.085938 136.515625 87.871094 133.726562 90.664062 C 130.933594 93.453125 127.148438 95.023438 123.199219 95.023438 L 15.300781 95.023438 C 11.355469 95.023438 7.566406 93.453125 4.777344 90.664062 C 1.984375 87.871094 0.417969 84.085938 0.417969 80.140625 L 0.417969 14.882812 C 0.417969 10.9375 1.984375 7.148438 4.777344 4.359375 C 7.566406 1.566406 11.355469 0 15.300781 0 Z M 15.300781 0 " clip-rule="nonzero"/></clipPath><clipPath id="03cc560530"><path d="M 0.421875 0 L 138.082031 0 L 138.082031 94.503906 L 0.421875 94.503906 Z M 0.421875 0 " clip-rule="nonzero"/></clipPath><clipPath id="0fb5d84e55"><path d="M 15.304688 0 L 123.199219 0 C 127.144531 0 130.929688 1.566406 133.722656 4.359375 C 136.511719 7.148438 138.082031 10.933594 138.082031 14.882812 L 138.082031 80.136719 C 138.082031 84.082031 136.511719 87.867188 133.722656 90.660156 C 130.929688 93.449219 127.144531 95.015625 123.199219 95.015625 L 15.304688 95.015625 C 11.355469 95.015625 7.570312 93.449219 4.78125 90.660156 C 1.988281 87.867188 0.421875 84.082031 0.421875 80.136719 L 0.421875 14.882812 C 0.421875 10.933594 1.988281 7.148438 4.78125 4.359375 C 7.570312 1.566406 11.355469 0 15.304688 0 Z M 15.304688 0 " clip-rule="nonzero"/></clipPath><clipPath id="a13ffdea71"><path d="M 19.769531 33 L 118.742188 33 L 118.742188 64 L 19.769531 64 Z M 19.769531 33 " clip-rule="nonzero"/></clipPath></defs><g clip-path="url(#0ecebe75a1)"><g clip-path="url(#d4ded17f33)"><path fill="#ffffff" d="M 0.417969 0 L 138.082031 0 L 138.082031 95.023438 L 0.417969 95.023438 Z M 0.417969 0 " fill-opacity="1" fill-rule="nonzero"/></g></g><g clip-path="url(#03cc560530)"><g clip-path="url(#0fb5d84e55)"><path stroke-linecap="butt" transform="matrix(0.744141, 0, 0, 0.744141, 0.420895, 0.000000992187)" fill="none" stroke-linejoin="miter" d="M 20.001318 -0.00000133333 L 164.993453 -0.00000133333 C 170.29529 -0.00000133333 175.381905 2.104986 179.135186 5.858267 C 182.883218 9.606298 184.993454 14.692913 184.993454 20 L 184.993454 107.690294 C 184.993454 112.992132 182.883218 118.078746 179.135186 121.832027 C 175.381905 125.580059 170.29529 127.685046 164.993453 127.685046 L 20.001318 127.685046 C 14.694231 127.685046 9.607616 125.580059 5.859585 121.832027 C 2.106303 118.078746 0.00131646 112.992132 0.00131646 107.690294 L 0.00131646 20 C 0.00131646 14.692913 2.106303 9.606298 5.859585 5.858267 C 9.607616 2.104986 14.694231 -0.00000133333 20.001318 -0.00000133333 Z M 20.001318 -0.00000133333 " stroke="#e8e8e8" stroke-width="16" stroke-opacity="1" stroke-miterlimit="4"/></g></g><g clip-path="url(#a13ffdea71)"><path fill="#191e6e" d="M 77.367188 57.773438 C 74.210938 57.773438 72.476562 57.339844 69.816406 56.246094 L 68.832031 55.796875 L 67.714844 62.292969 C 69.636719 63.082031 73.101562 63.761719 76.683594 63.816406 C 85.101562 63.816406 90.601562 59.910156 90.667969 53.902344 C 90.734375 50.601562 88.5625 48.09375 83.984375 46.027344 C 81.203125 44.6875 79.472656 43.789062 79.472656 42.425781 C 79.472656 41.222656 80.953125 39.941406 84.042969 39.941406 C 86.121094 39.890625 88.121094 40.261719 90.042969 41.050781 L 90.785156 41.378906 L 91.90625 35.101562 L 91.710938 35.144531 C 89.390625 34.3125 87 33.902344 84.535156 33.917969 C 76.617188 33.917969 71.03125 37.855469 70.988281 43.492188 C 70.9375 47.636719 74.964844 49.96875 78.003906 51.359375 C 81.125 52.78125 82.167969 53.675781 82.160156 54.953125 C 82.140625 56.898438 79.664062 57.773438 77.367188 57.773438 Z M 112.257812 34.453125 L 106.074219 34.453125 C 104.148438 34.453125 102.707031 34.96875 101.863281 36.855469 L 89.964844 63.414062 L 98.382812 63.414062 L 100.066406 59.066406 L 110.332031 59.074219 C 110.585938 60.089844 111.324219 63.414062 111.324219 63.414062 L 118.742188 63.414062 Z M 102.371094 53.125 L 105.5625 45.027344 C 105.519531 45.113281 106.222656 43.355469 106.625 42.265625 L 107.175781 44.765625 L 109.027344 53.125 Z M 54.59375 63.183594 L 62.609375 63.183594 L 67.621094 34.207031 L 59.605469 34.207031 L 59.605469 34.199219 Z M 40.074219 54.199219 L 39.238281 50.175781 L 39.238281 50.1875 L 36.425781 36.882812 C 35.945312 35.042969 34.535156 34.496094 32.785156 34.429688 L 19.875 34.429688 L 19.769531 35.042969 C 22.679688 35.722656 25.296875 36.707031 27.640625 37.914062 C 28.019531 38.136719 28.265625 38.457031 28.382812 38.878906 L 35.308594 63.371094 L 43.78125 63.371094 L 56.402344 34.453125 L 47.910156 34.453125 Z M 40.074219 54.199219 " fill-opacity="1" fill-rule="nonzero"/></g></svg>